<?xml version='1.0'?>
<!--
Bitly Generated QR Code
v3
29x29
-->
<svg width='592' height='592'
xmlns='http://www.w3.org/2000/svg'
xmlns:xlink='http://www.w3.org/1999/xlink'>
	<g id='background' style='fill:#ffffff' >
<rect x="0" y="0" width="592" height="592" />
</g>
<g id='pips' style='fill:#198639' >
<path d="M64,208L80,208L80,224L64,224L64,208M64,240L80,240L80,256L80,272L96,272L96,256L112,256L128,256L128,272L144,272L144,256L160,256L176,256L176,272L160,272L160,288L176,288L176,304L160,304L144,304L128,304L128,288L112,288L96,288L80,288L80,304L64,304L64,288L64,272L64,256L64,240M64,320L80,320L80,336L64,336L64,320M64,352L80,352L80,368L64,368L64,352M64,384L80,384L80,400L64,400L64,384M80,336L96,336L96,320L96,304L112,304L112,320L128,320L144,320L144,336L144,352L144,368L128,368L128,352L128,336L112,336L112,352L112,368L128,368L128,384L128,400L112,400L96,400L96,384L80,384L80,368L96,368L96,352L80,352L80,336M96,192L112,192L112,208L96,208L96,192M96,224L112,224L112,240L96,240L96,224M128,192L144,192L160,192L176,192L176,208L160,208L160,224L144,224L144,240L128,240L128,224L128,208L128,192M144,368L160,368L160,384L144,384L144,368M160,224L176,224L176,208L192,208L192,224L208,224L208,208L192,208L192,192L208,192L224,192L224,208L224,224L240,224L240,208L240,192L240,176L256,176L256,192L272,192L272,176L288,176L288,192L288,208L304,208L304,224L320,224L320,240L304,240L304,256L288,256L272,256L272,240L272,224L272,208L256,208L256,224L256,240L256,256L256,272L272,272L288,272L288,288L304,288L304,304L304,320L288,320L288,304L272,304L256,304L256,288L240,288L224,288L224,272L208,272L192,272L192,256L208,256L208,240L192,240L176,240L160,240L160,224M160,320L176,320L176,304L192,304L192,320L192,336L192,352L176,352L176,336L160,336L160,320M160,352L176,352L176,368L160,368L160,352M160,384L176,384L176,400L160,400L160,384M192,64L208,64L208,80L192,80L192,64M192,112L208,112L224,112L224,128L208,128L192,128L192,112M192,160L208,160L208,176L192,176L192,160M192,352L208,352L208,368L192,368L192,352M192,384L208,384L208,400L208,416L192,416L192,400L192,384M192,432L208,432L208,416L224,416L224,400L224,384L240,384L256,384L272,384L272,400L288,400L288,416L304,416L304,432L288,432L272,432L256,432L256,416L256,400L240,400L240,416L240,432L240,448L224,448L224,464L208,464L192,464L192,448L192,432M192,480L208,480L208,496L192,496L192,480M224,240L224,256L240,256L240,240L224,240M208,288L224,288L224,304L208,304L208,288M208,320L224,320L224,304L240,304L240,320L240,336L224,336L224,352L208,352L208,336L208,320M208,368L224,368L224,384L208,384L208,368M208,512L224,512L240,512L240,528L224,528L208,528L208,512M224,64L240,64L240,80L240,96L256,96L272,96L272,80L256,80L256,64L272,64L288,64L288,80L304,80L304,96L288,96L288,112L304,112L304,128L288,128L272,128L272,144L288,144L304,144L304,160L304,176L288,176L288,160L272,160L272,176L256,176L256,160L256,144L256,128L256,112L240,112L224,112L224,96L224,80L224,64M224,160L240,160L240,176L224,176L224,160M240,352L256,352L272,352L272,368L256,368L240,368L240,352M256,480L272,480L272,464L288,464L288,480L304,480L304,496L288,496L272,496L272,512L272,528L256,528L256,512L256,496L256,480M272,320L288,320L288,336L288,352L272,352L272,336L272,320M272,368L288,368L288,384L272,384L272,368M304,64L320,64L336,64L336,80L352,80L368,80L368,64L384,64L384,80L400,80L400,96L400,112L400,128L384,128L384,144L400,144L400,160L400,176L384,176L384,160L368,160L368,144L352,144L352,128L368,128L368,112L384,112L384,96L368,96L368,112L352,112L352,96L336,96L320,96L320,80L304,80L304,64M304,96L320,96L320,112L304,112L304,96M304,176L320,176L320,192L304,192L304,176M304,256L320,256L320,272L304,272L304,256M304,336L320,336L320,352L304,352L304,336M304,384L320,384L320,368L336,368L336,384L336,400L320,400L304,400L304,384M304,432L320,432L320,416L336,416L336,432L352,432L352,448L352,464L368,464L368,480L352,480L352,496L336,496L336,480L336,464L336,448L320,448L320,464L304,464L304,448L304,432M304,496L320,496L336,496L336,512L336,528L320,528L320,512L304,512L304,496M320,128L336,128L336,144L320,144L320,128M320,160L336,160L336,176L320,176L320,160M320,208L336,208L352,208L352,224L368,224L368,240L384,240L400,240L416,240L432,240L432,256L448,256L448,272L448,288L448,304L448,320L464,320L480,320L480,336L464,336L448,336L432,336L432,352L416,352L416,336L416,320L416,304L400,304L384,304L384,288L384,272L368,272L352,272L352,288L352,304L368,304L368,320L368,336L352,336L352,320L336,320L336,304L336,288L336,272L336,256L352,256L352,240L336,240L336,224L320,224L320,208M320,240L336,240L336,256L320,256L320,240M320,320L336,320L336,336L320,336L320,320M336,176L352,176L352,192L336,192L336,176M336,336L352,336L352,352L336,352L336,336M336,400L352,400L352,416L336,416L336,400M352,160L368,160L368,176L352,176L352,160M352,192L368,192L368,176L384,176L384,192L384,208L368,208L352,208L352,192M352,352L368,352L368,368L352,368L352,352M352,384L368,384L368,400L352,400L352,384M352,416L368,416L368,400L384,400L384,384L400,384L416,384L416,368L432,368L432,384L448,384L464,384L480,384L496,384L496,400L480,400L464,400L464,416L464,432L464,448L480,448L480,464L480,480L464,480L448,480L448,464L432,464L416,464L416,480L400,480L384,480L384,464L384,448L384,432L368,432L352,432L352,416M368,480L384,480L384,496L368,496L368,480M368,512L384,512L384,496L400,496L400,512L416,512L416,528L400,528L384,528L368,528L368,512M384,208L400,208L400,192L416,192L416,208L416,224L400,224L384,224L384,208M400,256L400,272L416,272L416,256L400,256M384,352L400,352L416,352L416,368L400,368L384,368L384,352M400,400L400,416L400,432L400,448L416,448L432,448L448,448L448,432L448,416L448,400L432,400L416,400L400,400M416,416L432,416L432,432L416,432L416,416M416,496L432,496L432,480L448,480L448,496L448,512L432,512L416,512L416,496M432,224L448,224L464,224L464,208L464,192L480,192L480,208L496,208L496,224L512,224L512,208L512,192L528,192L528,208L528,224L528,240L512,240L512,256L496,256L496,240L480,240L480,256L464,256L464,240L448,240L432,240L432,224M448,352L464,352L480,352L480,368L464,368L448,368L448,352M480,288L496,288L512,288L512,272L528,272L528,288L528,304L512,304L512,320L512,336L528,336L528,352L528,368L512,368L512,384L496,384L496,368L496,352L480,352L480,336L496,336L496,320L496,304L480,304L480,288M480,416L496,416L496,400L512,400L528,400L528,416L528,432L528,448L512,448L512,464L496,464L496,448L496,432L480,432L480,416Z" />
<path d="M4.7253,9.0689C6.179,9.0436 6.4149,7.6154 6.4149,6.769C6.4149,5.5163 5.775,5.0788 5,5C4.0425,5.4242 3.3403,6.146 3.2555,7.2606C3.2416,7.4443 3.237,7.6894 3.2516,7.9757C3.2906,8.7383 3.8493,9.0843 4.7253,9.0689 M 12.2447 10.8068 C 11.2047 10.8068 10.1118 10.1673 10.06 8.9707 C 8.8774 10.2223 7.0538 10.8186 4.7253 10.8186 C 2.3769 10.8186 1.396 9.2175 1.396 7.9703 C 1.4554 3.8126 1.3605 2.255 1.341 1.9353 C 1.3393 1.907 1.3381 1.8884 1.3377 1.8785 L 1.3373 1.8677 C 1.3313 1.7096 1.3224 1.4733 1.172 1.4572 C 1.0786 1.4472 1.0183 1.4757 0.911 1.6094 C 0.75 1.8233 0.425 1.908 0.2273 1.7937 C -0.0116 1.6555 -0.0562 1.3505 0.0647 1.0697 C 0.4002 0.3212 0.9379 -0.01 1.6625 0.0003 C 2.9146 0.0182 3.2738 0.8359 3.2738 1.8575 C 3.2738 1.8575 3.246 3.3292 3.246 4.1579 C 3.689 3.7969 4.3397 3.4098 5.4266 3.4098 C 7.6899 3.4098 9.1267 6.2118 7.6503 8.8925 C 9.5428 8.0197 9.9378 6.5164 10.0112 5.0238 L 10.0043 4.5203 C 10.0043 3.9552 10.3688 3.4767 10.9361 3.4767 C 11.5034 3.4767 11.8802 3.9877 11.86 4.5271 C 11.7919 6.3438 11.7644 7.5395 11.7644 8.1722 C 11.7644 8.5384 11.9642 9.0996 12.5555 9.0996 C 13.7134 9.0996 14.094 8.1922 14.1838 6.0595 C 14.1885 5.2642 14.1927 4.5997 14.1927 4.5997 C 13.6679 4.5997 13.4094 4.324 13.4094 3.9795 C 13.4094 3.635 13.683 3.3163 14.1321 3.3163 C 14.1321 3.3163 14.133 2.1182 14.133 1.622 C 14.133 1.0569 14.5715 0.5883 15.1388 0.5883 C 15.7062 0.5883 16.1567 1.0569 16.1567 1.622 C 16.1567 1.8095 16.1495 2.028 16.1416 2.2695 C 16.1315 2.5784 16.1201 2.9246 16.121 3.2909 L 16.2032 3.2905 H 16.2032 C 16.357 3.29 16.7051 3.2888 17.1681 3.2834 C 17.7198 3.2769 17.9445 3.5851 17.9445 3.9709 C 17.9445 4.3567 17.6475 4.626 17.2602 4.6276 C 16.9012 4.6291 16.1083 4.6247 16.1083 4.6247 C 16.0723 5.7674 16.0382 7.1451 16.0382 8.2475 C 16.0382 8.6451 16.3126 9.0995 16.9767 9.0995 C 18.3163 9.0995 18.8167 7.9092 18.9173 5.6498 C 18.9095 4.0766 18.8907 3.1653 18.8765 2.4785 V 2.4785 C 18.8666 1.9969 18.859 1.6258 18.859 1.2143 C 18.859 0.6493 19.3295 0.1442 19.8967 0.1442 C 20.4641 0.1442 20.8826 0.5977 20.8826 1.1627 C 20.8826 1.598 20.8651 2.1069 20.8413 2.8009 V 2.8009 V 2.801 C 20.801 3.9747 20.7425 5.6778 20.7195 8.4504 C 20.7165 8.8195 20.8967 9.0795 21.3748 9.0795 C 22.6524 9.0795 23.0066 7.6955 23.119 5.7625 C 23.1197 5.6695 23.1205 5.5785 23.1214 5.4891 L 23.1214 5.4887 C 23.1231 5.3054 23.1247 5.1289 23.1247 4.9561 C 23.1247 4.391 23.5011 3.9337 24.0686 3.9337 C 24.6359 3.9337 24.9694 4.4022 24.9694 4.9673 C 24.9694 5.3698 24.9562 5.7464 24.9427 6.1348 C 24.9307 6.4777 24.9184 6.8299 24.9146 7.2176 C 24.9047 8.2151 25.2455 9.0938 26.0756 9.0914 C 26.8726 9.0891 27.7479 8.7536 27.7691 7.045 C 27.7751 6.5701 27.7683 6.2053 27.7615 5.8371 V 5.837 V 5.8369 V 5.8368 C 27.7564 5.5642 27.7513 5.2897 27.7513 4.9673 C 27.7513 4.4022 28.1451 3.9337 28.7125 3.9337 C 29.2795 3.9337 29.6737 4.4022 29.6737 4.9673 C 29.6737 5.3051 29.6614 5.6415 29.6477 6.0145 V 6.0145 V 6.0146 V 6.0146 C 29.6307 6.4783 29.6117 6.9984 29.6117 7.6477 C 29.6117 7.6477 29.5769 10.0141 29.66 10.5378 C 29.9203 10.4512 30.2958 10.1968 30.6935 9.5802 C 30.9337 9.208 31.3928 9.1282 31.6758 9.293 C 32.0653 9.52 32.0514 9.9635 31.9058 10.2875 C 31.5298 11.1239 31.0409 11.6358 29.8047 12.0595 C 29.8086 13.4782 29.7098 15.5713 27.0868 15.9496 C 24.8405 16.2735 23.8244 14.9708 23.8211 13.8623 C 23.8157 12.112 25.5649 11.6022 28.0897 10.9665 L 28.0087 10.099 C 28.0087 10.099 27.4464 10.8364 26.0215 10.8008 C 24.9223 10.7733 24.1663 10.2543 23.7077 9.5213 C 23.1787 10.3901 22.3495 10.8105 21.1004 10.8105 C 20.2775 10.8105 19.4934 10.3758 19.1051 9.7457 C 18.5325 10.4308 17.7339 10.8015 16.6607 10.8015 C 15.7256 10.8015 15.0346 10.4786 14.6209 9.9746 C 14.087 10.5712 13.318 10.8068 12.2447 10.8068 Z M 28.2548 12.363 C 26.9786 12.6385 25.3798 13.0407 25.3983 13.8266 C 25.4158 14.5636 26.1767 14.6977 26.8111 14.5666 C 28.1286 14.2943 28.2816 13.5015 28.2548 12.363 Z M 11.9704 1.6249 C 11.9704 1.0544 11.5073 0.5932 10.9347 0.5932 C 10.3619 0.5932 9.8989 1.0544 9.8989 1.6249 C 9.8989 2.1953 10.3619 2.6566 10.9347 2.6566 C 11.5073 2.6566 11.9704 2.1953 11.9704 1.6249 Z" fill='#198639' transform='translate(456.000000, 492.000000) scale(2.250000, 2.250000)' />
</g>
<g id='corners-outer-1' style='fill:#198639' >
<path d="M64,64L80,64L96,64L112,64L128,64L144,64L160,64L176,64L176,80L176,96L176,112L176,128L176,144L176,160L176,176L160,176L144,176L128,176L112,176L96,176L80,176L64,176L64,160L64,144L64,128L64,112L64,96L64,80L64,64M80,80L80,96L80,112L80,128L80,144L80,160L96,160L112,160L128,160L144,160L160,160L160,144L160,128L160,112L160,96L160,80L144,80L128,80L112,80L96,80L80,80Z" />
</g>
<g id='corners-inner-1' style='fill:#198639' >
<path d="M96,96L112,96L128,96L144,96L144,112L144,128L144,144L128,144L112,144L96,144L96,128L96,112L96,96Z" />
</g>
<g id='corners-outer-2' style='fill:#198639' >
<path d="M416,64L432,64L448,64L464,64L480,64L496,64L512,64L528,64L528,80L528,96L528,112L528,128L528,144L528,160L528,176L512,176L496,176L480,176L464,176L448,176L432,176L416,176L416,160L416,144L416,128L416,112L416,96L416,80L416,64M432,80L432,96L432,112L432,128L432,144L432,160L448,160L464,160L480,160L496,160L512,160L512,144L512,128L512,112L512,96L512,80L496,80L480,80L464,80L448,80L432,80Z" />
</g>
<g id='corners-inner-2' style='fill:#198639' >
<path d="M448,96L464,96L480,96L496,96L496,112L496,128L496,144L480,144L464,144L448,144L448,128L448,112L448,96Z" />
</g>
<g id='corners-outer-3' style='fill:#198639' >
<path d="M64,416L80,416L96,416L112,416L128,416L144,416L160,416L176,416L176,432L176,448L176,464L176,480L176,496L176,512L176,528L160,528L144,528L128,528L112,528L96,528L80,528L64,528L64,512L64,496L64,480L64,464L64,448L64,432L64,416M80,432L80,448L80,464L80,480L80,496L80,512L96,512L112,512L128,512L144,512L160,512L160,496L160,480L160,464L160,448L160,432L144,432L128,432L112,432L96,432L80,432Z" />
</g>
<g id='corners-inner-3' style='fill:#198639' >
<path d="M96,448L112,448L128,448L144,448L144,464L144,480L144,496L128,496L112,496L96,496L96,480L96,464L96,448Z" />
</g>
</svg>
