<?xml version="1.0" encoding="UTF-8"?>
<svg xmlns="http://www.w3.org/2000/svg" xmlns:xlink="http://www.w3.org/1999/xlink" width="460pt" height="259pt" viewBox="0 0 460 259">
<defs>
<g>
<g id="glyph-0-0">
<path d="M 0.28125 0 L 0.28125 -6.3125 L 5.296875 -6.3125 L 5.296875 0 Z M 4.5 -0.796875 L 4.5 -5.515625 L 1.078125 -5.515625 L 1.078125 -0.796875 Z M 4.5 -0.796875 "/>
</g>
<g id="glyph-0-1">
<path d="M 0.84375 -4.359375 L 0.84375 -4.953125 C 1.394531 -5.003906 1.78125 -5.09375 2 -5.21875 C 2.226562 -5.34375 2.394531 -5.644531 2.5 -6.125 L 3.109375 -6.125 L 3.109375 0 L 2.296875 0 L 2.296875 -4.359375 Z M 0.84375 -4.359375 "/>
</g>
<g id="glyph-0-2">
<path d="M 0.28125 0 C 0.300781 -0.53125 0.40625 -0.988281 0.59375 -1.375 C 0.789062 -1.769531 1.164062 -2.128906 1.71875 -2.453125 L 2.546875 -2.921875 C 2.910156 -3.140625 3.164062 -3.328125 3.3125 -3.484375 C 3.550781 -3.710938 3.671875 -3.984375 3.671875 -4.296875 C 3.671875 -4.648438 3.5625 -4.929688 3.34375 -5.140625 C 3.132812 -5.359375 2.847656 -5.46875 2.484375 -5.46875 C 1.960938 -5.46875 1.597656 -5.265625 1.390625 -4.859375 C 1.285156 -4.648438 1.226562 -4.351562 1.21875 -3.96875 L 0.421875 -3.96875 C 0.429688 -4.5 0.53125 -4.9375 0.71875 -5.28125 C 1.050781 -5.875 1.644531 -6.171875 2.5 -6.171875 C 3.195312 -6.171875 3.707031 -5.976562 4.03125 -5.59375 C 4.363281 -5.21875 4.53125 -4.796875 4.53125 -4.328125 C 4.53125 -3.835938 4.351562 -3.414062 4 -3.0625 C 3.800781 -2.863281 3.441406 -2.617188 2.921875 -2.328125 L 2.34375 -2 C 2.0625 -1.84375 1.835938 -1.695312 1.671875 -1.5625 C 1.390625 -1.3125 1.210938 -1.035156 1.140625 -0.734375 L 4.5 -0.734375 L 4.5 0 Z M 0.28125 0 "/>
</g>
<g id="glyph-0-3">
<path d="M 1.09375 -1.5625 C 1.132812 -1.125 1.335938 -0.820312 1.703125 -0.65625 C 1.878906 -0.570312 2.09375 -0.53125 2.34375 -0.53125 C 2.800781 -0.53125 3.140625 -0.675781 3.359375 -0.96875 C 3.578125 -1.257812 3.6875 -1.582031 3.6875 -1.9375 C 3.6875 -2.363281 3.554688 -2.691406 3.296875 -2.921875 C 3.035156 -3.160156 2.71875 -3.28125 2.34375 -3.28125 C 2.082031 -3.28125 1.851562 -3.226562 1.65625 -3.125 C 1.46875 -3.019531 1.304688 -2.878906 1.171875 -2.703125 L 0.5 -2.734375 L 0.96875 -6.046875 L 4.171875 -6.046875 L 4.171875 -5.296875 L 1.5625 -5.296875 L 1.296875 -3.59375 C 1.429688 -3.695312 1.566406 -3.773438 1.703125 -3.828125 C 1.929688 -3.929688 2.195312 -3.984375 2.5 -3.984375 C 3.0625 -3.984375 3.535156 -3.800781 3.921875 -3.4375 C 4.316406 -3.070312 4.515625 -2.609375 4.515625 -2.046875 C 4.515625 -1.460938 4.332031 -0.945312 3.96875 -0.5 C 3.613281 -0.0625 3.046875 0.15625 2.265625 0.15625 C 1.753906 0.15625 1.304688 0.0117188 0.921875 -0.265625 C 0.546875 -0.546875 0.332031 -0.976562 0.28125 -1.5625 Z M 1.09375 -1.5625 "/>
</g>
<g id="glyph-0-4">
<path d="M 0.359375 -2.84375 L 2.515625 -2.84375 L 2.515625 -2.046875 L 0.359375 -2.046875 Z M 0.359375 -2.84375 "/>
</g>
<g id="glyph-0-5">
<path d="M 4.59375 -6.046875 L 4.59375 -5.375 C 4.394531 -5.175781 4.128906 -4.835938 3.796875 -4.359375 C 3.472656 -3.890625 3.1875 -3.378906 2.9375 -2.828125 C 2.6875 -2.296875 2.5 -1.8125 2.375 -1.375 C 2.289062 -1.082031 2.179688 -0.625 2.046875 0 L 1.203125 0 C 1.390625 -1.175781 1.816406 -2.34375 2.484375 -3.5 C 2.878906 -4.1875 3.289062 -4.773438 3.71875 -5.265625 L 0.328125 -5.265625 L 0.328125 -6.046875 Z M 4.59375 -6.046875 "/>
</g>
<g id="glyph-0-6">
<path d="M 2.375 -6.15625 C 3.175781 -6.15625 3.753906 -5.828125 4.109375 -5.171875 C 4.378906 -4.660156 4.515625 -3.960938 4.515625 -3.078125 C 4.515625 -2.242188 4.390625 -1.554688 4.140625 -1.015625 C 3.785156 -0.222656 3.195312 0.171875 2.375 0.171875 C 1.632812 0.171875 1.082031 -0.148438 0.71875 -0.796875 C 0.425781 -1.328125 0.28125 -2.046875 0.28125 -2.953125 C 0.28125 -3.648438 0.367188 -4.25 0.546875 -4.75 C 0.878906 -5.6875 1.488281 -6.15625 2.375 -6.15625 Z M 2.375 -0.53125 C 2.769531 -0.53125 3.085938 -0.707031 3.328125 -1.0625 C 3.566406 -1.425781 3.6875 -2.085938 3.6875 -3.046875 C 3.6875 -3.753906 3.597656 -4.332031 3.421875 -4.78125 C 3.253906 -5.226562 2.921875 -5.453125 2.421875 -5.453125 C 1.972656 -5.453125 1.640625 -5.238281 1.421875 -4.8125 C 1.210938 -4.382812 1.109375 -3.753906 1.109375 -2.921875 C 1.109375 -2.296875 1.175781 -1.789062 1.3125 -1.40625 C 1.519531 -0.820312 1.875 -0.53125 2.375 -0.53125 Z M 2.375 -0.53125 "/>
</g>
<g id="glyph-0-7">
<path d="M 3.90625 -2.578125 L 2.953125 -5.375 L 1.9375 -2.578125 Z M 2.5 -6.3125 L 3.46875 -6.3125 L 5.765625 0 L 4.828125 0 L 4.1875 -1.890625 L 1.6875 -1.890625 L 1 0 L 0.125 0 Z M 2.5 -6.3125 "/>
</g>
<g id="glyph-0-8">
<path d="M 3.046875 -3.640625 C 3.398438 -3.640625 3.679688 -3.691406 3.890625 -3.796875 C 4.203125 -3.953125 4.359375 -4.234375 4.359375 -4.640625 C 4.359375 -5.054688 4.191406 -5.335938 3.859375 -5.484375 C 3.660156 -5.554688 3.378906 -5.59375 3.015625 -5.59375 L 1.484375 -5.59375 L 1.484375 -3.640625 Z M 3.328125 -0.734375 C 3.847656 -0.734375 4.222656 -0.882812 4.453125 -1.1875 C 4.585938 -1.375 4.65625 -1.601562 4.65625 -1.875 C 4.65625 -2.332031 4.453125 -2.644531 4.046875 -2.8125 C 3.828125 -2.90625 3.539062 -2.953125 3.1875 -2.953125 L 1.484375 -2.953125 L 1.484375 -0.734375 Z M 0.65625 -6.3125 L 3.359375 -6.3125 C 4.097656 -6.3125 4.625 -6.085938 4.9375 -5.640625 C 5.113281 -5.378906 5.203125 -5.082031 5.203125 -4.75 C 5.203125 -4.351562 5.09375 -4.023438 4.875 -3.765625 C 4.75 -3.628906 4.578125 -3.503906 4.359375 -3.390625 C 4.679688 -3.273438 4.925781 -3.140625 5.09375 -2.984375 C 5.375 -2.703125 5.515625 -2.320312 5.515625 -1.84375 C 5.515625 -1.4375 5.390625 -1.066406 5.140625 -0.734375 C 4.753906 -0.242188 4.144531 0 3.3125 0 L 0.65625 0 Z M 0.65625 -6.3125 "/>
</g>
<g id="glyph-0-9">
<path d="M 3.328125 -6.484375 C 4.128906 -6.484375 4.75 -6.269531 5.1875 -5.84375 C 5.625 -5.425781 5.867188 -4.953125 5.921875 -4.421875 L 5.09375 -4.421875 C 5 -4.828125 4.8125 -5.144531 4.53125 -5.375 C 4.25 -5.613281 3.851562 -5.734375 3.34375 -5.734375 C 2.71875 -5.734375 2.210938 -5.515625 1.828125 -5.078125 C 1.453125 -4.640625 1.265625 -3.972656 1.265625 -3.078125 C 1.265625 -2.335938 1.4375 -1.738281 1.78125 -1.28125 C 2.125 -0.820312 2.632812 -0.59375 3.3125 -0.59375 C 3.945312 -0.59375 4.429688 -0.832031 4.765625 -1.3125 C 4.929688 -1.570312 5.0625 -1.90625 5.15625 -2.3125 L 5.984375 -2.3125 C 5.910156 -1.65625 5.664062 -1.101562 5.25 -0.65625 C 4.75 -0.113281 4.070312 0.15625 3.21875 0.15625 C 2.488281 0.15625 1.875 -0.0625 1.375 -0.5 C 0.71875 -1.09375 0.390625 -2 0.390625 -3.21875 C 0.390625 -4.15625 0.632812 -4.921875 1.125 -5.515625 C 1.65625 -6.160156 2.390625 -6.484375 3.328125 -6.484375 Z M 3.15625 -6.484375 Z M 3.15625 -6.484375 "/>
</g>
<g id="glyph-1-0">
<path d="M 0.359375 0 L 0.359375 -7.890625 L 6.625 -7.890625 L 6.625 0 Z M 5.625 -0.984375 L 5.625 -6.90625 L 1.34375 -6.90625 L 1.34375 -0.984375 Z M 5.625 -0.984375 "/>
</g>
<g id="glyph-1-1">
<path d="M 3.875 -0.90625 C 4.226562 -0.90625 4.523438 -0.945312 4.765625 -1.03125 C 5.171875 -1.164062 5.507812 -1.429688 5.78125 -1.828125 C 5.988281 -2.148438 6.140625 -2.5625 6.234375 -3.0625 C 6.285156 -3.351562 6.3125 -3.628906 6.3125 -3.890625 C 6.3125 -4.859375 6.117188 -5.613281 5.734375 -6.15625 C 5.347656 -6.695312 4.722656 -6.96875 3.859375 -6.96875 L 1.953125 -6.96875 L 1.953125 -0.90625 Z M 0.890625 -7.890625 L 4.078125 -7.890625 C 5.160156 -7.890625 6.003906 -7.503906 6.609375 -6.734375 C 7.140625 -6.035156 7.40625 -5.144531 7.40625 -4.0625 C 7.40625 -3.226562 7.25 -2.472656 6.9375 -1.796875 C 6.382812 -0.597656 5.429688 0 4.078125 0 L 0.890625 0 Z M 0.890625 -7.890625 "/>
</g>
<g id="glyph-1-2">
<path d="M 0.703125 -5.71875 L 1.6875 -5.71875 L 1.6875 0 L 0.703125 0 Z M 0.703125 -7.890625 L 1.6875 -7.890625 L 1.6875 -6.796875 L 0.703125 -6.796875 Z M 0.703125 -7.890625 "/>
</g>
<g id="glyph-1-3">
<path d="M 0.953125 -6.625 C 0.960938 -7.03125 1.03125 -7.328125 1.15625 -7.515625 C 1.382812 -7.835938 1.820312 -8 2.46875 -8 C 2.53125 -8 2.59375 -8 2.65625 -8 C 2.71875 -8 2.789062 -7.992188 2.875 -7.984375 L 2.875 -7.09375 C 2.769531 -7.101562 2.695312 -7.109375 2.65625 -7.109375 C 2.613281 -7.109375 2.570312 -7.109375 2.53125 -7.109375 C 2.238281 -7.109375 2.0625 -7.03125 2 -6.875 C 1.945312 -6.726562 1.921875 -6.34375 1.921875 -5.71875 L 2.875 -5.71875 L 2.875 -4.96875 L 1.90625 -4.96875 L 1.90625 0 L 0.953125 0 L 0.953125 -4.96875 L 0.15625 -4.96875 L 0.15625 -5.71875 L 0.953125 -5.71875 Z M 0.953125 -6.625 "/>
</g>
<g id="glyph-1-4">
<path d="M 3.109375 -5.875 C 3.515625 -5.875 3.90625 -5.78125 4.28125 -5.59375 C 4.664062 -5.40625 4.960938 -5.15625 5.171875 -4.84375 C 5.359375 -4.5625 5.484375 -4.222656 5.546875 -3.828125 C 5.609375 -3.566406 5.640625 -3.144531 5.640625 -2.5625 L 1.421875 -2.5625 C 1.441406 -1.976562 1.578125 -1.507812 1.828125 -1.15625 C 2.085938 -0.8125 2.488281 -0.640625 3.03125 -0.640625 C 3.539062 -0.640625 3.945312 -0.804688 4.25 -1.140625 C 4.414062 -1.328125 4.535156 -1.550781 4.609375 -1.8125 L 5.5625 -1.8125 C 5.53125 -1.59375 5.441406 -1.351562 5.296875 -1.09375 C 5.160156 -0.832031 5.003906 -0.625 4.828125 -0.46875 C 4.535156 -0.175781 4.175781 0.0195312 3.75 0.125 C 3.507812 0.175781 3.242188 0.203125 2.953125 0.203125 C 2.234375 0.203125 1.625 -0.0546875 1.125 -0.578125 C 0.632812 -1.097656 0.390625 -1.828125 0.390625 -2.765625 C 0.390625 -3.691406 0.640625 -4.441406 1.140625 -5.015625 C 1.640625 -5.585938 2.296875 -5.875 3.109375 -5.875 Z M 4.640625 -3.328125 C 4.609375 -3.753906 4.519531 -4.09375 4.375 -4.34375 C 4.101562 -4.800781 3.660156 -5.03125 3.046875 -5.03125 C 2.597656 -5.03125 2.222656 -4.867188 1.921875 -4.546875 C 1.628906 -4.234375 1.472656 -3.828125 1.453125 -3.328125 Z M 3.015625 -5.890625 Z M 3.015625 -5.890625 "/>
</g>
<g id="glyph-1-5">
<path d="M 0.734375 -5.75 L 1.65625 -5.75 L 1.65625 -4.765625 C 1.726562 -4.953125 1.910156 -5.179688 2.203125 -5.453125 C 2.492188 -5.734375 2.832031 -5.875 3.21875 -5.875 C 3.238281 -5.875 3.269531 -5.875 3.3125 -5.875 C 3.351562 -5.875 3.425781 -5.867188 3.53125 -5.859375 L 3.53125 -4.828125 C 3.476562 -4.835938 3.425781 -4.84375 3.375 -4.84375 C 3.320312 -4.851562 3.269531 -4.859375 3.21875 -4.859375 C 2.726562 -4.859375 2.351562 -4.703125 2.09375 -4.390625 C 1.832031 -4.078125 1.703125 -3.71875 1.703125 -3.3125 L 1.703125 0 L 0.734375 0 Z M 0.734375 -5.75 "/>
</g>
<g id="glyph-1-6">
<path d="M 0.703125 -5.75 L 1.625 -5.75 L 1.625 -4.9375 C 1.894531 -5.269531 2.179688 -5.507812 2.484375 -5.65625 C 2.796875 -5.800781 3.132812 -5.875 3.5 -5.875 C 4.320312 -5.875 4.875 -5.59375 5.15625 -5.03125 C 5.3125 -4.71875 5.390625 -4.269531 5.390625 -3.6875 L 5.390625 0 L 4.421875 0 L 4.421875 -3.625 C 4.421875 -3.976562 4.367188 -4.257812 4.265625 -4.46875 C 4.085938 -4.832031 3.773438 -5.015625 3.328125 -5.015625 C 3.097656 -5.015625 2.910156 -4.988281 2.765625 -4.9375 C 2.492188 -4.863281 2.257812 -4.707031 2.0625 -4.46875 C 1.90625 -4.28125 1.800781 -4.082031 1.75 -3.875 C 1.695312 -3.675781 1.671875 -3.390625 1.671875 -3.015625 L 1.671875 0 L 0.703125 0 Z M 2.984375 -5.890625 Z M 2.984375 -5.890625 "/>
</g>
<g id="glyph-1-7">
<path d="M 2.921875 -5.921875 C 3.578125 -5.921875 4.109375 -5.757812 4.515625 -5.4375 C 4.921875 -5.125 5.164062 -4.582031 5.25 -3.8125 L 4.296875 -3.8125 C 4.242188 -4.164062 4.113281 -4.457031 3.90625 -4.6875 C 3.707031 -4.925781 3.378906 -5.046875 2.921875 -5.046875 C 2.304688 -5.046875 1.867188 -4.75 1.609375 -4.15625 C 1.429688 -3.757812 1.34375 -3.273438 1.34375 -2.703125 C 1.34375 -2.128906 1.460938 -1.644531 1.703125 -1.25 C 1.953125 -0.851562 2.335938 -0.65625 2.859375 -0.65625 C 3.265625 -0.65625 3.582031 -0.773438 3.8125 -1.015625 C 4.050781 -1.265625 4.210938 -1.601562 4.296875 -2.03125 L 5.25 -2.03125 C 5.132812 -1.269531 4.863281 -0.710938 4.4375 -0.359375 C 4.007812 -0.00390625 3.457031 0.171875 2.78125 0.171875 C 2.03125 0.171875 1.429688 -0.101562 0.984375 -0.65625 C 0.535156 -1.207031 0.3125 -1.894531 0.3125 -2.71875 C 0.3125 -3.726562 0.554688 -4.515625 1.046875 -5.078125 C 1.535156 -5.640625 2.160156 -5.921875 2.921875 -5.921875 Z M 2.78125 -5.890625 Z M 2.78125 -5.890625 "/>
</g>
<g id="glyph-1-8">
<path d="M 0.8125 -7.890625 L 2.34375 -7.890625 L 4.609375 -1.21875 L 6.859375 -7.890625 L 8.375 -7.890625 L 8.375 0 L 7.359375 0 L 7.359375 -4.65625 C 7.359375 -4.820312 7.359375 -5.085938 7.359375 -5.453125 C 7.367188 -5.828125 7.375 -6.226562 7.375 -6.65625 L 5.125 0 L 4.078125 0 L 1.8125 -6.65625 L 1.8125 -6.40625 C 1.8125 -6.21875 1.8125 -5.925781 1.8125 -5.53125 C 1.820312 -5.132812 1.828125 -4.84375 1.828125 -4.65625 L 1.828125 0 L 0.8125 0 Z M 0.8125 -7.890625 "/>
</g>
<g id="glyph-1-9">
<path d="M 1.453125 -1.53125 C 1.453125 -1.25 1.550781 -1.023438 1.75 -0.859375 C 1.957031 -0.703125 2.203125 -0.625 2.484375 -0.625 C 2.816406 -0.625 3.144531 -0.703125 3.46875 -0.859375 C 4.007812 -1.117188 4.28125 -1.550781 4.28125 -2.15625 L 4.28125 -2.921875 C 4.15625 -2.847656 4 -2.785156 3.8125 -2.734375 C 3.632812 -2.691406 3.453125 -2.65625 3.265625 -2.625 L 2.6875 -2.5625 C 2.332031 -2.507812 2.066406 -2.4375 1.890625 -2.34375 C 1.597656 -2.164062 1.453125 -1.894531 1.453125 -1.53125 Z M 3.796875 -3.484375 C 4.015625 -3.515625 4.160156 -3.609375 4.234375 -3.765625 C 4.273438 -3.847656 4.296875 -3.972656 4.296875 -4.140625 C 4.296875 -4.460938 4.175781 -4.695312 3.9375 -4.84375 C 3.707031 -5 3.375 -5.078125 2.9375 -5.078125 C 2.4375 -5.078125 2.082031 -4.941406 1.875 -4.671875 C 1.75 -4.515625 1.671875 -4.289062 1.640625 -4 L 0.734375 -4 C 0.753906 -4.707031 0.984375 -5.195312 1.421875 -5.46875 C 1.867188 -5.75 2.382812 -5.890625 2.96875 -5.890625 C 3.644531 -5.890625 4.191406 -5.757812 4.609375 -5.5 C 5.035156 -5.25 5.25 -4.847656 5.25 -4.296875 L 5.25 -0.984375 C 5.25 -0.890625 5.265625 -0.8125 5.296875 -0.75 C 5.335938 -0.6875 5.425781 -0.65625 5.5625 -0.65625 C 5.601562 -0.65625 5.648438 -0.65625 5.703125 -0.65625 C 5.765625 -0.664062 5.820312 -0.675781 5.875 -0.6875 L 5.875 0.03125 C 5.726562 0.0703125 5.613281 0.0976562 5.53125 0.109375 C 5.457031 0.117188 5.351562 0.125 5.21875 0.125 C 4.882812 0.125 4.640625 0.00390625 4.484375 -0.234375 C 4.410156 -0.359375 4.359375 -0.535156 4.328125 -0.765625 C 4.128906 -0.503906 3.84375 -0.28125 3.46875 -0.09375 C 3.101562 0.0898438 2.695312 0.1875 2.25 0.1875 C 1.71875 0.1875 1.28125 0.0234375 0.9375 -0.296875 C 0.601562 -0.617188 0.4375 -1.023438 0.4375 -1.515625 C 0.4375 -2.046875 0.601562 -2.457031 0.9375 -2.75 C 1.269531 -3.039062 1.707031 -3.222656 2.25 -3.296875 Z M 2.984375 -5.890625 Z M 2.984375 -5.890625 "/>
</g>
<g id="glyph-1-10">
<path d="M 0.90625 -7.359375 L 1.875 -7.359375 L 1.875 -5.75 L 2.796875 -5.75 L 2.796875 -4.96875 L 1.875 -4.96875 L 1.875 -1.203125 C 1.875 -1.003906 1.941406 -0.875 2.078125 -0.8125 C 2.160156 -0.769531 2.285156 -0.75 2.453125 -0.75 C 2.503906 -0.75 2.554688 -0.75 2.609375 -0.75 C 2.660156 -0.75 2.722656 -0.753906 2.796875 -0.765625 L 2.796875 0 C 2.679688 0.03125 2.5625 0.0507812 2.4375 0.0625 C 2.320312 0.0820312 2.195312 0.09375 2.0625 0.09375 C 1.613281 0.09375 1.304688 -0.0195312 1.140625 -0.25 C 0.984375 -0.488281 0.90625 -0.789062 0.90625 -1.15625 L 0.90625 -4.96875 L 0.125 -4.96875 L 0.125 -5.75 L 0.90625 -5.75 Z M 0.90625 -7.359375 "/>
</g>
<g id="glyph-1-11">
<path d="M 0.734375 -7.890625 L 1.703125 -7.890625 L 1.703125 0 L 0.734375 0 Z M 0.734375 -7.890625 "/>
</g>
<g id="glyph-1-12">
<path d="M 1.46875 -1.859375 C 1.488281 -1.328125 1.691406 -0.957031 2.078125 -0.75 C 2.273438 -0.644531 2.5 -0.59375 2.75 -0.59375 C 3.207031 -0.59375 3.597656 -0.785156 3.921875 -1.171875 C 4.253906 -1.554688 4.488281 -2.335938 4.625 -3.515625 C 4.40625 -3.171875 4.132812 -2.929688 3.8125 -2.796875 C 3.5 -2.660156 3.160156 -2.59375 2.796875 -2.59375 C 2.054688 -2.59375 1.46875 -2.820312 1.03125 -3.28125 C 0.601562 -3.738281 0.390625 -4.332031 0.390625 -5.0625 C 0.390625 -5.757812 0.601562 -6.375 1.03125 -6.90625 C 1.457031 -7.4375 2.085938 -7.703125 2.921875 -7.703125 C 4.035156 -7.703125 4.804688 -7.195312 5.234375 -6.1875 C 5.472656 -5.632812 5.59375 -4.941406 5.59375 -4.109375 C 5.59375 -3.160156 5.453125 -2.320312 5.171875 -1.59375 C 4.703125 -0.382812 3.90625 0.21875 2.78125 0.21875 C 2.03125 0.21875 1.457031 0.0195312 1.0625 -0.375 C 0.675781 -0.769531 0.484375 -1.265625 0.484375 -1.859375 Z M 2.921875 -3.4375 C 3.304688 -3.4375 3.65625 -3.5625 3.96875 -3.8125 C 4.289062 -4.0625 4.453125 -4.503906 4.453125 -5.140625 C 4.453125 -5.703125 4.304688 -6.125 4.015625 -6.40625 C 3.734375 -6.6875 3.375 -6.828125 2.9375 -6.828125 C 2.46875 -6.828125 2.09375 -6.664062 1.8125 -6.34375 C 1.53125 -6.03125 1.390625 -5.609375 1.390625 -5.078125 C 1.390625 -4.578125 1.507812 -4.175781 1.75 -3.875 C 2 -3.582031 2.390625 -3.4375 2.921875 -3.4375 Z M 2.921875 -3.4375 "/>
</g>
<g id="glyph-1-13">
<path d="M 1.359375 -1.953125 C 1.421875 -1.410156 1.675781 -1.03125 2.125 -0.8125 C 2.351562 -0.707031 2.617188 -0.65625 2.921875 -0.65625 C 3.492188 -0.65625 3.914062 -0.835938 4.1875 -1.203125 C 4.46875 -1.566406 4.609375 -1.972656 4.609375 -2.421875 C 4.609375 -2.953125 4.441406 -3.363281 4.109375 -3.65625 C 3.785156 -3.957031 3.394531 -4.109375 2.9375 -4.109375 C 2.601562 -4.109375 2.316406 -4.039062 2.078125 -3.90625 C 1.835938 -3.78125 1.632812 -3.601562 1.46875 -3.375 L 0.640625 -3.421875 L 1.21875 -7.5625 L 5.21875 -7.5625 L 5.21875 -6.625 L 1.9375 -6.625 L 1.609375 -4.484375 C 1.796875 -4.617188 1.96875 -4.722656 2.125 -4.796875 C 2.414062 -4.910156 2.75 -4.96875 3.125 -4.96875 C 3.820312 -4.96875 4.414062 -4.738281 4.90625 -4.28125 C 5.40625 -3.832031 5.65625 -3.257812 5.65625 -2.5625 C 5.65625 -1.832031 5.425781 -1.191406 4.96875 -0.640625 C 4.519531 -0.0859375 3.804688 0.1875 2.828125 0.1875 C 2.203125 0.1875 1.644531 0.0117188 1.15625 -0.328125 C 0.675781 -0.679688 0.410156 -1.222656 0.359375 -1.953125 Z M 1.359375 -1.953125 "/>
</g>
<g id="glyph-1-14">
<path d="M 7.5 -3.734375 C 8.007812 -3.734375 8.445312 -3.550781 8.8125 -3.1875 C 9.1875 -2.820312 9.375 -2.382812 9.375 -1.875 C 9.375 -1.351562 9.1875 -0.910156 8.8125 -0.546875 C 8.445312 -0.179688 8.007812 0 7.5 0 C 6.976562 0 6.535156 -0.179688 6.171875 -0.546875 C 5.804688 -0.910156 5.625 -1.351562 5.625 -1.875 C 5.625 -2.382812 5.804688 -2.820312 6.171875 -3.1875 C 6.535156 -3.550781 6.976562 -3.734375 7.5 -3.734375 Z M 6.71875 -7.65625 L 7.3125 -7.65625 L 3.015625 0.203125 L 2.421875 0.203125 Z M 2.21875 -4.484375 C 2.53125 -4.484375 2.789062 -4.585938 3 -4.796875 C 3.21875 -5.015625 3.328125 -5.28125 3.328125 -5.59375 C 3.328125 -5.894531 3.21875 -6.148438 3 -6.359375 C 2.789062 -6.578125 2.53125 -6.6875 2.21875 -6.6875 C 1.914062 -6.6875 1.65625 -6.578125 1.4375 -6.359375 C 1.226562 -6.148438 1.125 -5.894531 1.125 -5.59375 C 1.125 -5.28125 1.226562 -5.015625 1.4375 -4.796875 C 1.65625 -4.585938 1.914062 -4.484375 2.21875 -4.484375 Z M 2.21875 -7.453125 C 2.738281 -7.453125 3.179688 -7.269531 3.546875 -6.90625 C 3.910156 -6.539062 4.09375 -6.101562 4.09375 -5.59375 C 4.09375 -5.070312 3.910156 -4.628906 3.546875 -4.265625 C 3.179688 -3.898438 2.738281 -3.71875 2.21875 -3.71875 C 1.707031 -3.71875 1.269531 -3.898438 0.90625 -4.265625 C 0.539062 -4.628906 0.359375 -5.070312 0.359375 -5.59375 C 0.359375 -6.101562 0.539062 -6.539062 0.90625 -6.90625 C 1.269531 -7.269531 1.707031 -7.453125 2.21875 -7.453125 Z M 7.5 -0.765625 C 7.800781 -0.765625 8.0625 -0.867188 8.28125 -1.078125 C 8.5 -1.296875 8.609375 -1.5625 8.609375 -1.875 C 8.609375 -2.175781 8.5 -2.429688 8.28125 -2.640625 C 8.0625 -2.859375 7.800781 -2.96875 7.5 -2.96875 C 7.1875 -2.96875 6.921875 -2.859375 6.703125 -2.640625 C 6.492188 -2.429688 6.390625 -2.175781 6.390625 -1.875 C 6.390625 -1.5625 6.492188 -1.296875 6.703125 -1.078125 C 6.921875 -0.867188 7.1875 -0.765625 7.5 -0.765625 Z M 7.5 -0.765625 "/>
</g>
<g id="glyph-1-15">
</g>
<g id="glyph-1-16">
<path d="M 0.703125 -5.75 L 1.671875 -5.75 L 1.671875 -4.9375 C 1.898438 -5.21875 2.101562 -5.421875 2.28125 -5.546875 C 2.601562 -5.765625 2.96875 -5.875 3.375 -5.875 C 3.832031 -5.875 4.203125 -5.765625 4.484375 -5.546875 C 4.640625 -5.410156 4.78125 -5.21875 4.90625 -4.96875 C 5.125 -5.28125 5.378906 -5.507812 5.671875 -5.65625 C 5.960938 -5.800781 6.285156 -5.875 6.640625 -5.875 C 7.410156 -5.875 7.9375 -5.597656 8.21875 -5.046875 C 8.375 -4.742188 8.453125 -4.335938 8.453125 -3.828125 L 8.453125 0 L 7.4375 0 L 7.4375 -4 C 7.4375 -4.382812 7.34375 -4.644531 7.15625 -4.78125 C 6.96875 -4.925781 6.734375 -5 6.453125 -5 C 6.078125 -5 5.75 -4.867188 5.46875 -4.609375 C 5.195312 -4.359375 5.0625 -3.9375 5.0625 -3.34375 L 5.0625 0 L 4.078125 0 L 4.078125 -3.75 C 4.078125 -4.144531 4.03125 -4.429688 3.9375 -4.609375 C 3.789062 -4.878906 3.519531 -5.015625 3.125 -5.015625 C 2.757812 -5.015625 2.425781 -4.867188 2.125 -4.578125 C 1.820312 -4.296875 1.671875 -3.785156 1.671875 -3.046875 L 1.671875 0 L 0.703125 0 Z M 0.703125 -5.75 "/>
</g>
<g id="glyph-1-17">
<path d="M 4.296875 -5.75 L 5.375 -5.75 C 5.238281 -5.382812 4.9375 -4.546875 4.46875 -3.234375 C 4.113281 -2.242188 3.816406 -1.4375 3.578125 -0.8125 C 3.023438 0.652344 2.632812 1.550781 2.40625 1.875 C 2.175781 2.195312 1.78125 2.359375 1.21875 2.359375 C 1.082031 2.359375 0.976562 2.351562 0.90625 2.34375 C 0.832031 2.332031 0.742188 2.3125 0.640625 2.28125 L 0.640625 1.40625 C 0.804688 1.445312 0.925781 1.472656 1 1.484375 C 1.070312 1.492188 1.140625 1.5 1.203125 1.5 C 1.378906 1.5 1.507812 1.46875 1.59375 1.40625 C 1.675781 1.351562 1.75 1.285156 1.8125 1.203125 C 1.820312 1.171875 1.882812 1.019531 2 0.75 C 2.113281 0.488281 2.191406 0.296875 2.234375 0.171875 L 0.109375 -5.75 L 1.203125 -5.75 L 2.75 -1.0625 Z M 2.75 -5.890625 Z M 2.75 -5.890625 "/>
</g>
<g id="glyph-1-18">
<path d="M 0.453125 -3.5625 L 3.15625 -3.5625 L 3.15625 -2.5625 L 0.453125 -2.5625 Z M 0.453125 -3.5625 "/>
</g>
<g id="glyph-1-19">
<path d="M 1.15625 -5.75 L 2.265625 -1.21875 L 3.390625 -5.75 L 4.46875 -5.75 L 5.59375 -1.25 L 6.765625 -5.75 L 7.734375 -5.75 L 6.0625 0 L 5.0625 0 L 3.890625 -4.453125 L 2.765625 0 L 1.75 0 L 0.09375 -5.75 Z M 1.15625 -5.75 "/>
</g>
<g id="glyph-1-20">
<path d="M 1.28125 -1.8125 C 1.3125 -1.488281 1.394531 -1.238281 1.53125 -1.0625 C 1.769531 -0.75 2.191406 -0.59375 2.796875 -0.59375 C 3.148438 -0.59375 3.460938 -0.671875 3.734375 -0.828125 C 4.003906 -0.984375 4.140625 -1.222656 4.140625 -1.546875 C 4.140625 -1.796875 4.03125 -1.984375 3.8125 -2.109375 C 3.675781 -2.191406 3.398438 -2.285156 2.984375 -2.390625 L 2.21875 -2.578125 C 1.726562 -2.703125 1.367188 -2.835938 1.140625 -2.984375 C 0.722656 -3.253906 0.515625 -3.617188 0.515625 -4.078125 C 0.515625 -4.617188 0.707031 -5.054688 1.09375 -5.390625 C 1.488281 -5.734375 2.019531 -5.90625 2.6875 -5.90625 C 3.550781 -5.90625 4.175781 -5.648438 4.5625 -5.140625 C 4.800781 -4.816406 4.914062 -4.46875 4.90625 -4.09375 L 4 -4.09375 C 3.976562 -4.3125 3.898438 -4.507812 3.765625 -4.6875 C 3.546875 -4.945312 3.160156 -5.078125 2.609375 -5.078125 C 2.242188 -5.078125 1.96875 -5.003906 1.78125 -4.859375 C 1.59375 -4.722656 1.5 -4.539062 1.5 -4.3125 C 1.5 -4.0625 1.625 -3.863281 1.875 -3.71875 C 2.007812 -3.625 2.21875 -3.539062 2.5 -3.46875 L 3.140625 -3.3125 C 3.835938 -3.144531 4.300781 -2.984375 4.53125 -2.828125 C 4.914062 -2.578125 5.109375 -2.191406 5.109375 -1.671875 C 5.109375 -1.148438 4.910156 -0.703125 4.515625 -0.328125 C 4.128906 0.0351562 3.539062 0.21875 2.75 0.21875 C 1.894531 0.21875 1.285156 0.0234375 0.921875 -0.359375 C 0.566406 -0.753906 0.378906 -1.238281 0.359375 -1.8125 Z M 2.71875 -5.890625 Z M 2.71875 -5.890625 "/>
</g>
<g id="glyph-1-21">
<path d="M 2.984375 -0.625 C 3.628906 -0.625 4.070312 -0.863281 4.3125 -1.34375 C 4.550781 -1.832031 4.671875 -2.375 4.671875 -2.96875 C 4.671875 -3.507812 4.582031 -3.945312 4.40625 -4.28125 C 4.132812 -4.8125 3.664062 -5.078125 3 -5.078125 C 2.40625 -5.078125 1.972656 -4.847656 1.703125 -4.390625 C 1.441406 -3.941406 1.3125 -3.398438 1.3125 -2.765625 C 1.3125 -2.148438 1.441406 -1.640625 1.703125 -1.234375 C 1.972656 -0.828125 2.398438 -0.625 2.984375 -0.625 Z M 3.03125 -5.921875 C 3.769531 -5.921875 4.394531 -5.671875 4.90625 -5.171875 C 5.414062 -4.679688 5.671875 -3.957031 5.671875 -3 C 5.671875 -2.070312 5.445312 -1.304688 5 -0.703125 C 4.550781 -0.0976562 3.851562 0.203125 2.90625 0.203125 C 2.113281 0.203125 1.484375 -0.0625 1.015625 -0.59375 C 0.546875 -1.125 0.3125 -1.84375 0.3125 -2.75 C 0.3125 -3.71875 0.554688 -4.488281 1.046875 -5.0625 C 1.535156 -5.632812 2.195312 -5.921875 3.03125 -5.921875 Z M 3 -5.890625 Z M 3 -5.890625 "/>
</g>
<g id="glyph-1-22">
<path d="M 0.953125 -6.625 C 0.960938 -7.03125 1.03125 -7.328125 1.15625 -7.515625 C 1.382812 -7.835938 1.820312 -8 2.46875 -8 C 2.53125 -8 2.59375 -8 2.65625 -8 C 2.71875 -8 2.789062 -7.992188 2.875 -7.984375 L 2.875 -7.09375 C 2.769531 -7.101562 2.695312 -7.109375 2.65625 -7.109375 C 2.613281 -7.109375 2.570312 -7.109375 2.53125 -7.109375 C 2.238281 -7.109375 2.0625 -7.03125 2 -6.875 C 1.945312 -6.726562 1.921875 -6.34375 1.921875 -5.71875 L 2.875 -5.71875 L 2.875 -4.96875 L 1.90625 -4.96875 L 1.90625 0 L 0.953125 0 L 0.953125 -4.96875 L 0.15625 -4.96875 L 0.15625 -5.71875 L 0.953125 -5.71875 Z M 3.796875 -6.796875 L 3.796875 -7.890625 L 4.765625 -7.890625 L 4.765625 -6.796875 Z M 3.796875 -5.71875 L 4.765625 -5.71875 L 4.765625 0 L 3.796875 0 Z M 3.796875 -5.71875 "/>
</g>
<g id="glyph-1-23">
<path d="M 1.328125 -2.8125 C 1.328125 -2.195312 1.457031 -1.679688 1.71875 -1.265625 C 1.976562 -0.847656 2.394531 -0.640625 2.96875 -0.640625 C 3.414062 -0.640625 3.78125 -0.832031 4.0625 -1.21875 C 4.351562 -1.601562 4.5 -2.15625 4.5 -2.875 C 4.5 -3.601562 4.347656 -4.140625 4.046875 -4.484375 C 3.753906 -4.835938 3.390625 -5.015625 2.953125 -5.015625 C 2.472656 -5.015625 2.082031 -4.828125 1.78125 -4.453125 C 1.476562 -4.078125 1.328125 -3.53125 1.328125 -2.8125 Z M 2.78125 -5.859375 C 3.21875 -5.859375 3.585938 -5.765625 3.890625 -5.578125 C 4.054688 -5.472656 4.25 -5.285156 4.46875 -5.015625 L 4.46875 -7.921875 L 5.390625 -7.921875 L 5.390625 0 L 4.53125 0 L 4.53125 -0.796875 C 4.300781 -0.441406 4.03125 -0.1875 3.71875 -0.03125 C 3.414062 0.121094 3.066406 0.203125 2.671875 0.203125 C 2.023438 0.203125 1.46875 -0.0625 1 -0.59375 C 0.53125 -1.132812 0.296875 -1.851562 0.296875 -2.75 C 0.296875 -3.59375 0.507812 -4.320312 0.9375 -4.9375 C 1.363281 -5.550781 1.976562 -5.859375 2.78125 -5.859375 Z M 2.78125 -5.859375 "/>
</g>
<g id="glyph-1-24">
<path d="M 1.1875 -5.75 L 2.71875 -1.0625 L 4.328125 -5.75 L 5.375 -5.75 L 3.21875 0 L 2.1875 0 L 0.0625 -5.75 Z M 1.1875 -5.75 "/>
</g>
<g id="glyph-2-0">
<path d="M 0 -0.359375 L -7.890625 -0.359375 L -7.890625 -6.625 L 0 -6.625 Z M -0.984375 -5.625 L -6.90625 -5.625 L -6.90625 -1.34375 L -0.984375 -1.34375 Z M -0.984375 -5.625 "/>
</g>
<g id="glyph-2-1">
<path d="M -7.890625 -6.578125 L -6.953125 -6.578125 L -6.953125 -3.921875 L 0 -3.921875 L 0 -2.84375 L -6.953125 -2.84375 L -6.953125 -0.171875 L -7.890625 -0.171875 Z M -7.890625 -6.578125 "/>
</g>
<g id="glyph-2-2">
<path d="M -5.875 -3.109375 C -5.875 -3.515625 -5.78125 -3.90625 -5.59375 -4.28125 C -5.40625 -4.664062 -5.15625 -4.960938 -4.84375 -5.171875 C -4.5625 -5.359375 -4.222656 -5.484375 -3.828125 -5.546875 C -3.566406 -5.609375 -3.144531 -5.640625 -2.5625 -5.640625 L -2.5625 -1.421875 C -1.976562 -1.441406 -1.507812 -1.578125 -1.15625 -1.828125 C -0.8125 -2.085938 -0.640625 -2.488281 -0.640625 -3.03125 C -0.640625 -3.539062 -0.804688 -3.945312 -1.140625 -4.25 C -1.328125 -4.414062 -1.550781 -4.535156 -1.8125 -4.609375 L -1.8125 -5.5625 C -1.59375 -5.53125 -1.351562 -5.441406 -1.09375 -5.296875 C -0.832031 -5.160156 -0.625 -5.003906 -0.46875 -4.828125 C -0.175781 -4.535156 0.0195312 -4.175781 0.125 -3.75 C 0.175781 -3.507812 0.203125 -3.242188 0.203125 -2.953125 C 0.203125 -2.234375 -0.0546875 -1.625 -0.578125 -1.125 C -1.097656 -0.632812 -1.828125 -0.390625 -2.765625 -0.390625 C -3.691406 -0.390625 -4.441406 -0.640625 -5.015625 -1.140625 C -5.585938 -1.640625 -5.875 -2.296875 -5.875 -3.109375 Z M -3.328125 -4.640625 C -3.753906 -4.609375 -4.09375 -4.519531 -4.34375 -4.375 C -4.800781 -4.101562 -5.03125 -3.660156 -5.03125 -3.046875 C -5.03125 -2.597656 -4.867188 -2.222656 -4.546875 -1.921875 C -4.234375 -1.628906 -3.828125 -1.472656 -3.328125 -1.453125 Z M -5.890625 -3.015625 Z M -5.890625 -3.015625 "/>
</g>
<g id="glyph-2-3">
<path d="M -5.75 -0.703125 L -5.75 -1.671875 L -4.9375 -1.671875 C -5.21875 -1.898438 -5.421875 -2.101562 -5.546875 -2.28125 C -5.765625 -2.601562 -5.875 -2.96875 -5.875 -3.375 C -5.875 -3.832031 -5.765625 -4.203125 -5.546875 -4.484375 C -5.410156 -4.640625 -5.21875 -4.78125 -4.96875 -4.90625 C -5.28125 -5.125 -5.507812 -5.378906 -5.65625 -5.671875 C -5.800781 -5.960938 -5.875 -6.285156 -5.875 -6.640625 C -5.875 -7.410156 -5.597656 -7.9375 -5.046875 -8.21875 C -4.742188 -8.375 -4.335938 -8.453125 -3.828125 -8.453125 L 0 -8.453125 L 0 -7.4375 L -4 -7.4375 C -4.382812 -7.4375 -4.644531 -7.34375 -4.78125 -7.15625 C -4.925781 -6.96875 -5 -6.734375 -5 -6.453125 C -5 -6.078125 -4.867188 -5.75 -4.609375 -5.46875 C -4.359375 -5.195312 -3.9375 -5.0625 -3.34375 -5.0625 L 0 -5.0625 L 0 -4.078125 L -3.75 -4.078125 C -4.144531 -4.078125 -4.429688 -4.03125 -4.609375 -3.9375 C -4.878906 -3.789062 -5.015625 -3.519531 -5.015625 -3.125 C -5.015625 -2.757812 -4.867188 -2.425781 -4.578125 -2.125 C -4.296875 -1.820312 -3.785156 -1.671875 -3.046875 -1.671875 L 0 -1.671875 L 0 -0.703125 Z M -5.75 -0.703125 "/>
</g>
<g id="glyph-2-4">
<path d="M -0.65625 -3.140625 C -0.65625 -3.585938 -0.84375 -3.957031 -1.21875 -4.25 C -1.59375 -4.550781 -2.15625 -4.703125 -2.90625 -4.703125 C -3.363281 -4.703125 -3.757812 -4.640625 -4.09375 -4.515625 C -4.726562 -4.265625 -5.046875 -3.804688 -5.046875 -3.140625 C -5.046875 -2.460938 -4.710938 -2.003906 -4.046875 -1.765625 C -3.679688 -1.628906 -3.222656 -1.5625 -2.671875 -1.5625 C -2.234375 -1.5625 -1.859375 -1.628906 -1.546875 -1.765625 C -0.953125 -2.015625 -0.65625 -2.472656 -0.65625 -3.140625 Z M -5.71875 -0.640625 L -5.71875 -1.578125 L -4.96875 -1.578125 C -5.226562 -1.765625 -5.425781 -1.972656 -5.5625 -2.203125 C -5.78125 -2.535156 -5.890625 -2.921875 -5.890625 -3.359375 C -5.890625 -4.003906 -5.640625 -4.554688 -5.140625 -5.015625 C -4.640625 -5.472656 -3.925781 -5.703125 -3 -5.703125 C -1.75 -5.703125 -0.851562 -5.375 -0.3125 -4.71875 C 0.0195312 -4.300781 0.1875 -3.816406 0.1875 -3.265625 C 0.1875 -2.828125 0.0898438 -2.460938 -0.09375 -2.171875 C -0.195312 -2.003906 -0.378906 -1.8125 -0.640625 -1.59375 L 2.296875 -1.59375 L 2.296875 -0.640625 Z M -5.71875 -0.640625 "/>
</g>
<g id="glyph-2-5">
<path d="M -5.75 -0.734375 L -5.75 -1.65625 L -4.765625 -1.65625 C -4.953125 -1.726562 -5.179688 -1.910156 -5.453125 -2.203125 C -5.734375 -2.492188 -5.875 -2.832031 -5.875 -3.21875 C -5.875 -3.238281 -5.875 -3.269531 -5.875 -3.3125 C -5.875 -3.351562 -5.867188 -3.425781 -5.859375 -3.53125 L -4.828125 -3.53125 C -4.835938 -3.476562 -4.84375 -3.425781 -4.84375 -3.375 C -4.851562 -3.320312 -4.859375 -3.269531 -4.859375 -3.21875 C -4.859375 -2.726562 -4.703125 -2.351562 -4.390625 -2.09375 C -4.078125 -1.832031 -3.71875 -1.703125 -3.3125 -1.703125 L 0 -1.703125 L 0 -0.734375 Z M -5.75 -0.734375 "/>
</g>
<g id="glyph-2-6">
<path d="M -1.53125 -1.453125 C -1.25 -1.453125 -1.023438 -1.550781 -0.859375 -1.75 C -0.703125 -1.957031 -0.625 -2.203125 -0.625 -2.484375 C -0.625 -2.816406 -0.703125 -3.144531 -0.859375 -3.46875 C -1.117188 -4.007812 -1.550781 -4.28125 -2.15625 -4.28125 L -2.921875 -4.28125 C -2.847656 -4.15625 -2.785156 -4 -2.734375 -3.8125 C -2.691406 -3.632812 -2.65625 -3.453125 -2.625 -3.265625 L -2.5625 -2.6875 C -2.507812 -2.332031 -2.4375 -2.066406 -2.34375 -1.890625 C -2.164062 -1.597656 -1.894531 -1.453125 -1.53125 -1.453125 Z M -3.484375 -3.796875 C -3.515625 -4.015625 -3.609375 -4.160156 -3.765625 -4.234375 C -3.847656 -4.273438 -3.972656 -4.296875 -4.140625 -4.296875 C -4.460938 -4.296875 -4.695312 -4.175781 -4.84375 -3.9375 C -5 -3.707031 -5.078125 -3.375 -5.078125 -2.9375 C -5.078125 -2.4375 -4.941406 -2.082031 -4.671875 -1.875 C -4.515625 -1.75 -4.289062 -1.671875 -4 -1.640625 L -4 -0.734375 C -4.707031 -0.753906 -5.195312 -0.984375 -5.46875 -1.421875 C -5.75 -1.867188 -5.890625 -2.382812 -5.890625 -2.96875 C -5.890625 -3.644531 -5.757812 -4.191406 -5.5 -4.609375 C -5.25 -5.035156 -4.847656 -5.25 -4.296875 -5.25 L -0.984375 -5.25 C -0.890625 -5.25 -0.8125 -5.265625 -0.75 -5.296875 C -0.6875 -5.335938 -0.65625 -5.425781 -0.65625 -5.5625 C -0.65625 -5.601562 -0.65625 -5.648438 -0.65625 -5.703125 C -0.664062 -5.765625 -0.675781 -5.820312 -0.6875 -5.875 L 0.03125 -5.875 C 0.0703125 -5.726562 0.0976562 -5.613281 0.109375 -5.53125 C 0.117188 -5.457031 0.125 -5.351562 0.125 -5.21875 C 0.125 -4.882812 0.00390625 -4.640625 -0.234375 -4.484375 C -0.359375 -4.410156 -0.535156 -4.359375 -0.765625 -4.328125 C -0.503906 -4.128906 -0.28125 -3.84375 -0.09375 -3.46875 C 0.0898438 -3.101562 0.1875 -2.695312 0.1875 -2.25 C 0.1875 -1.71875 0.0234375 -1.28125 -0.296875 -0.9375 C -0.617188 -0.601562 -1.023438 -0.4375 -1.515625 -0.4375 C -2.046875 -0.4375 -2.457031 -0.601562 -2.75 -0.9375 C -3.039062 -1.269531 -3.222656 -1.707031 -3.296875 -2.25 Z M -5.890625 -2.984375 Z M -5.890625 -2.984375 "/>
</g>
<g id="glyph-2-7">
<path d="M -7.359375 -0.90625 L -7.359375 -1.875 L -5.75 -1.875 L -5.75 -2.796875 L -4.96875 -2.796875 L -4.96875 -1.875 L -1.203125 -1.875 C -1.003906 -1.875 -0.875 -1.941406 -0.8125 -2.078125 C -0.769531 -2.160156 -0.75 -2.285156 -0.75 -2.453125 C -0.75 -2.503906 -0.75 -2.554688 -0.75 -2.609375 C -0.75 -2.660156 -0.753906 -2.722656 -0.765625 -2.796875 L 0 -2.796875 C 0.03125 -2.679688 0.0507812 -2.5625 0.0625 -2.4375 C 0.0820312 -2.320312 0.09375 -2.195312 0.09375 -2.0625 C 0.09375 -1.613281 -0.0195312 -1.304688 -0.25 -1.140625 C -0.488281 -0.984375 -0.789062 -0.90625 -1.15625 -0.90625 L -4.96875 -0.90625 L -4.96875 -0.125 L -5.75 -0.125 L -5.75 -0.90625 Z M -7.359375 -0.90625 "/>
</g>
<g id="glyph-2-8">
<path d="M -5.75 -1.671875 L -1.9375 -1.671875 C -1.644531 -1.671875 -1.40625 -1.71875 -1.21875 -1.8125 C -0.875 -1.988281 -0.703125 -2.3125 -0.703125 -2.78125 C -0.703125 -3.445312 -1 -3.90625 -1.59375 -4.15625 C -1.914062 -4.28125 -2.359375 -4.34375 -2.921875 -4.34375 L -5.75 -4.34375 L -5.75 -5.3125 L 0 -5.3125 L 0 -4.40625 L -0.84375 -4.421875 C -0.625 -4.296875 -0.441406 -4.140625 -0.296875 -3.953125 C 0.00390625 -3.578125 0.15625 -3.128906 0.15625 -2.609375 C 0.15625 -1.785156 -0.117188 -1.222656 -0.671875 -0.921875 C -0.960938 -0.765625 -1.351562 -0.6875 -1.84375 -0.6875 L -5.75 -0.6875 Z M -5.890625 -3 Z M -5.890625 -3 "/>
</g>
</g>
<clipPath id="clip-0">
<path clip-rule="nonzero" d="M 52.152344 21.957031 L 394.605469 21.957031 L 394.605469 225.847656 L 52.152344 225.847656 Z M 52.152344 21.957031 "/>
</clipPath>
<clipPath id="clip-1">
<path clip-rule="nonzero" d="M 97 21.957031 L 99 21.957031 L 99 225.847656 L 97 225.847656 Z M 97 21.957031 "/>
</clipPath>
<clipPath id="clip-2">
<path clip-rule="nonzero" d="M 171 21.957031 L 172 21.957031 L 172 225.847656 L 171 225.847656 Z M 171 21.957031 "/>
</clipPath>
<clipPath id="clip-3">
<path clip-rule="nonzero" d="M 244 21.957031 L 246 21.957031 L 246 225.847656 L 244 225.847656 Z M 244 21.957031 "/>
</clipPath>
<clipPath id="clip-4">
<path clip-rule="nonzero" d="M 318 21.957031 L 319 21.957031 L 319 225.847656 L 318 225.847656 Z M 318 21.957031 "/>
</clipPath>
<clipPath id="clip-5">
<path clip-rule="nonzero" d="M 391 21.957031 L 393 21.957031 L 393 225.847656 L 391 225.847656 Z M 391 21.957031 "/>
</clipPath>
<clipPath id="clip-6">
<path clip-rule="nonzero" d="M 52.152344 187 L 394.605469 187 L 394.605469 189 L 52.152344 189 Z M 52.152344 187 "/>
</clipPath>
<clipPath id="clip-7">
<path clip-rule="nonzero" d="M 52.152344 123 L 394.605469 123 L 394.605469 125 L 52.152344 125 Z M 52.152344 123 "/>
</clipPath>
<clipPath id="clip-8">
<path clip-rule="nonzero" d="M 52.152344 59 L 394.605469 59 L 394.605469 61 L 52.152344 61 Z M 52.152344 59 "/>
</clipPath>
<clipPath id="clip-9">
<path clip-rule="nonzero" d="M 60 21.957031 L 62 21.957031 L 62 225.847656 L 60 225.847656 Z M 60 21.957031 "/>
</clipPath>
<clipPath id="clip-10">
<path clip-rule="nonzero" d="M 134 21.957031 L 136 21.957031 L 136 225.847656 L 134 225.847656 Z M 134 21.957031 "/>
</clipPath>
<clipPath id="clip-11">
<path clip-rule="nonzero" d="M 207 21.957031 L 209 21.957031 L 209 225.847656 L 207 225.847656 Z M 207 21.957031 "/>
</clipPath>
<clipPath id="clip-12">
<path clip-rule="nonzero" d="M 281 21.957031 L 283 21.957031 L 283 225.847656 L 281 225.847656 Z M 281 21.957031 "/>
</clipPath>
<clipPath id="clip-13">
<path clip-rule="nonzero" d="M 354 21.957031 L 356 21.957031 L 356 225.847656 L 354 225.847656 Z M 354 21.957031 "/>
</clipPath>
<clipPath id="clip-14">
<path clip-rule="nonzero" d="M 281 21.957031 L 283 21.957031 L 283 225.847656 L 281 225.847656 Z M 281 21.957031 "/>
</clipPath>
</defs>
<rect x="-46" y="-25.9" width="552" height="310.8" fill="rgb(100%, 100%, 100%)" fill-opacity="1"/>
<rect x="-46" y="-25.9" width="552" height="310.8" fill="rgb(100%, 100%, 100%)" fill-opacity="1"/>
<path fill="none" stroke-width="1.066978" stroke-linecap="round" stroke-linejoin="round" stroke="rgb(100%, 100%, 100%)" stroke-opacity="1" stroke-miterlimit="10" d="M 0 259 L 460 259 L 460 0 L 0 0 Z M 0 259 "/>
<g clip-path="url(#clip-0)">
<path fill-rule="nonzero" fill="rgb(92.156863%, 92.156863%, 92.156863%)" fill-opacity="1" d="M 52.152344 225.847656 L 394.605469 225.847656 L 394.605469 21.957031 L 52.152344 21.957031 Z M 52.152344 225.847656 "/>
</g>
<g clip-path="url(#clip-1)">
<path fill="none" stroke-width="0.533489" stroke-linecap="butt" stroke-linejoin="round" stroke="rgb(100%, 100%, 100%)" stroke-opacity="1" stroke-miterlimit="10" d="M 97.917969 225.847656 L 97.917969 21.957031 "/>
</g>
<g clip-path="url(#clip-2)">
<path fill="none" stroke-width="0.533489" stroke-linecap="butt" stroke-linejoin="round" stroke="rgb(100%, 100%, 100%)" stroke-opacity="1" stroke-miterlimit="10" d="M 171.480469 225.847656 L 171.480469 21.957031 "/>
</g>
<g clip-path="url(#clip-3)">
<path fill="none" stroke-width="0.533489" stroke-linecap="butt" stroke-linejoin="round" stroke="rgb(100%, 100%, 100%)" stroke-opacity="1" stroke-miterlimit="10" d="M 245.046875 225.847656 L 245.046875 21.957031 "/>
</g>
<g clip-path="url(#clip-4)">
<path fill="none" stroke-width="0.533489" stroke-linecap="butt" stroke-linejoin="round" stroke="rgb(100%, 100%, 100%)" stroke-opacity="1" stroke-miterlimit="10" d="M 318.609375 225.847656 L 318.609375 21.957031 "/>
</g>
<g clip-path="url(#clip-5)">
<path fill="none" stroke-width="0.533489" stroke-linecap="butt" stroke-linejoin="round" stroke="rgb(100%, 100%, 100%)" stroke-opacity="1" stroke-miterlimit="10" d="M 392.171875 225.847656 L 392.171875 21.957031 "/>
</g>
<g clip-path="url(#clip-6)">
<path fill="none" stroke-width="1.066978" stroke-linecap="butt" stroke-linejoin="round" stroke="rgb(100%, 100%, 100%)" stroke-opacity="1" stroke-miterlimit="10" d="M 52.152344 187.621094 L 394.601562 187.621094 "/>
</g>
<g clip-path="url(#clip-7)">
<path fill="none" stroke-width="1.066978" stroke-linecap="butt" stroke-linejoin="round" stroke="rgb(100%, 100%, 100%)" stroke-opacity="1" stroke-miterlimit="10" d="M 52.152344 123.902344 L 394.601562 123.902344 "/>
</g>
<g clip-path="url(#clip-8)">
<path fill="none" stroke-width="1.066978" stroke-linecap="butt" stroke-linejoin="round" stroke="rgb(100%, 100%, 100%)" stroke-opacity="1" stroke-miterlimit="10" d="M 52.152344 60.1875 L 394.601562 60.1875 "/>
</g>
<g clip-path="url(#clip-9)">
<path fill="none" stroke-width="1.066978" stroke-linecap="butt" stroke-linejoin="round" stroke="rgb(100%, 100%, 100%)" stroke-opacity="1" stroke-miterlimit="10" d="M 61.136719 225.847656 L 61.136719 21.957031 "/>
</g>
<g clip-path="url(#clip-10)">
<path fill="none" stroke-width="1.066978" stroke-linecap="butt" stroke-linejoin="round" stroke="rgb(100%, 100%, 100%)" stroke-opacity="1" stroke-miterlimit="10" d="M 134.699219 225.847656 L 134.699219 21.957031 "/>
</g>
<g clip-path="url(#clip-11)">
<path fill="none" stroke-width="1.066978" stroke-linecap="butt" stroke-linejoin="round" stroke="rgb(100%, 100%, 100%)" stroke-opacity="1" stroke-miterlimit="10" d="M 208.265625 225.847656 L 208.265625 21.957031 "/>
</g>
<g clip-path="url(#clip-12)">
<path fill="none" stroke-width="1.066978" stroke-linecap="butt" stroke-linejoin="round" stroke="rgb(100%, 100%, 100%)" stroke-opacity="1" stroke-miterlimit="10" d="M 281.828125 225.847656 L 281.828125 21.957031 "/>
</g>
<g clip-path="url(#clip-13)">
<path fill="none" stroke-width="1.066978" stroke-linecap="butt" stroke-linejoin="round" stroke="rgb(100%, 100%, 100%)" stroke-opacity="1" stroke-miterlimit="10" d="M 355.390625 225.847656 L 355.390625 21.957031 "/>
</g>
<g clip-path="url(#clip-14)">
<path fill="none" stroke-width="1.066978" stroke-linecap="butt" stroke-linejoin="round" stroke="rgb(100%, 0%, 0%)" stroke-opacity="1" stroke-miterlimit="10" d="M 281.828125 225.847656 L 281.828125 21.957031 "/>
</g>
<path fill-rule="nonzero" fill="rgb(97.254902%, 46.27451%, 42.745098%)" fill-opacity="1" stroke-width="0.708661" stroke-linecap="round" stroke-linejoin="round" stroke="rgb(97.254902%, 46.27451%, 42.745098%)" stroke-opacity="1" stroke-miterlimit="10" d="M 169.757812 70.808594 C 169.757812 73.414062 165.847656 73.414062 165.847656 70.808594 C 165.847656 68.203125 169.757812 68.203125 169.757812 70.808594 "/>
<path fill-rule="nonzero" fill="rgb(97.254902%, 46.27451%, 42.745098%)" fill-opacity="1" stroke-width="0.708661" stroke-linecap="round" stroke-linejoin="round" stroke="rgb(97.254902%, 46.27451%, 42.745098%)" stroke-opacity="1" stroke-miterlimit="10" d="M 170.125 198.238281 C 170.125 200.84375 166.21875 200.84375 166.21875 198.238281 C 166.21875 195.632812 170.125 195.632812 170.125 198.238281 "/>
<path fill-rule="nonzero" fill="rgb(97.254902%, 46.27451%, 42.745098%)" fill-opacity="1" stroke-width="0.708661" stroke-linecap="round" stroke-linejoin="round" stroke="rgb(97.254902%, 46.27451%, 42.745098%)" stroke-opacity="1" stroke-miterlimit="10" d="M 284.148438 134.523438 C 284.148438 137.128906 280.238281 137.128906 280.238281 134.523438 C 280.238281 131.917969 284.148438 131.917969 284.148438 134.523438 "/>
<path fill-rule="nonzero" fill="rgb(0%, 72.941176%, 21.960784%)" fill-opacity="1" stroke-width="0.708661" stroke-linecap="round" stroke-linejoin="round" stroke="rgb(0%, 72.941176%, 21.960784%)" stroke-opacity="1" stroke-miterlimit="10" d="M 230.816406 60.1875 C 230.816406 62.792969 226.90625 62.792969 226.90625 60.1875 C 226.90625 57.582031 230.816406 57.582031 230.816406 60.1875 "/>
<path fill-rule="nonzero" fill="rgb(0%, 72.941176%, 21.960784%)" fill-opacity="1" stroke-width="0.708661" stroke-linecap="round" stroke-linejoin="round" stroke="rgb(0%, 72.941176%, 21.960784%)" stroke-opacity="1" stroke-miterlimit="10" d="M 127.460938 187.621094 C 127.460938 190.226562 123.550781 190.226562 123.550781 187.621094 C 123.550781 185.011719 127.460938 185.011719 127.460938 187.621094 "/>
<path fill-rule="nonzero" fill="rgb(0%, 72.941176%, 21.960784%)" fill-opacity="1" stroke-width="0.708661" stroke-linecap="round" stroke-linejoin="round" stroke="rgb(0%, 72.941176%, 21.960784%)" stroke-opacity="1" stroke-miterlimit="10" d="M 180.425781 123.902344 C 180.425781 126.511719 176.515625 126.511719 176.515625 123.902344 C 176.515625 121.296875 180.425781 121.296875 180.425781 123.902344 "/>
<path fill-rule="nonzero" fill="rgb(38.039216%, 61.176471%, 100%)" fill-opacity="1" stroke-width="0.708661" stroke-linecap="round" stroke-linejoin="round" stroke="rgb(38.039216%, 61.176471%, 100%)" stroke-opacity="1" stroke-miterlimit="10" d="M 286.355469 49.570312 C 286.355469 52.175781 282.445312 52.175781 282.445312 49.570312 C 282.445312 46.960938 286.355469 46.960938 286.355469 49.570312 "/>
<path fill-rule="nonzero" fill="rgb(38.039216%, 61.176471%, 100%)" fill-opacity="1" stroke-width="0.708661" stroke-linecap="round" stroke-linejoin="round" stroke="rgb(38.039216%, 61.176471%, 100%)" stroke-opacity="1" stroke-miterlimit="10" d="M 197.714844 177 C 197.714844 179.605469 193.804688 179.605469 193.804688 177 C 193.804688 174.394531 197.714844 174.394531 197.714844 177 "/>
<path fill-rule="nonzero" fill="rgb(38.039216%, 61.176471%, 100%)" fill-opacity="1" stroke-width="0.708661" stroke-linecap="round" stroke-linejoin="round" stroke="rgb(38.039216%, 61.176471%, 100%)" stroke-opacity="1" stroke-miterlimit="10" d="M 195.136719 113.285156 C 195.136719 115.890625 191.230469 115.890625 191.230469 113.285156 C 191.230469 110.679688 195.136719 110.679688 195.136719 113.285156 "/>
<path fill="none" stroke-width="1.066978" stroke-linecap="butt" stroke-linejoin="round" stroke="rgb(97.254902%, 46.27451%, 42.745098%)" stroke-opacity="1" stroke-miterlimit="10" d="M 264.648438 71.871094 L 264.648438 69.746094 "/>
<path fill="none" stroke-width="1.066978" stroke-linecap="butt" stroke-linejoin="round" stroke="rgb(97.254902%, 46.27451%, 42.745098%)" stroke-opacity="1" stroke-miterlimit="10" d="M 264.648438 70.808594 L 70.960938 70.808594 "/>
<path fill="none" stroke-width="1.066978" stroke-linecap="butt" stroke-linejoin="round" stroke="rgb(97.254902%, 46.27451%, 42.745098%)" stroke-opacity="1" stroke-miterlimit="10" d="M 70.960938 71.871094 L 70.960938 69.746094 "/>
<path fill="none" stroke-width="1.066978" stroke-linecap="butt" stroke-linejoin="round" stroke="rgb(97.254902%, 46.27451%, 42.745098%)" stroke-opacity="1" stroke-miterlimit="10" d="M 265.015625 199.300781 L 265.015625 197.175781 "/>
<path fill="none" stroke-width="1.066978" stroke-linecap="butt" stroke-linejoin="round" stroke="rgb(97.254902%, 46.27451%, 42.745098%)" stroke-opacity="1" stroke-miterlimit="10" d="M 265.015625 198.238281 L 71.328125 198.238281 "/>
<path fill="none" stroke-width="1.066978" stroke-linecap="butt" stroke-linejoin="round" stroke="rgb(97.254902%, 46.27451%, 42.745098%)" stroke-opacity="1" stroke-miterlimit="10" d="M 71.328125 199.300781 L 71.328125 197.175781 "/>
<path fill="none" stroke-width="1.066978" stroke-linecap="butt" stroke-linejoin="round" stroke="rgb(97.254902%, 46.27451%, 42.745098%)" stroke-opacity="1" stroke-miterlimit="10" d="M 379.035156 135.585938 L 379.035156 133.460938 "/>
<path fill="none" stroke-width="1.066978" stroke-linecap="butt" stroke-linejoin="round" stroke="rgb(97.254902%, 46.27451%, 42.745098%)" stroke-opacity="1" stroke-miterlimit="10" d="M 379.035156 134.523438 L 185.351562 134.523438 "/>
<path fill="none" stroke-width="1.066978" stroke-linecap="butt" stroke-linejoin="round" stroke="rgb(97.254902%, 46.27451%, 42.745098%)" stroke-opacity="1" stroke-miterlimit="10" d="M 185.351562 135.585938 L 185.351562 133.460938 "/>
<path fill="none" stroke-width="1.066978" stroke-linecap="butt" stroke-linejoin="round" stroke="rgb(0%, 72.941176%, 21.960784%)" stroke-opacity="1" stroke-miterlimit="10" d="M 286.648438 61.25 L 286.648438 59.125 "/>
<path fill="none" stroke-width="1.066978" stroke-linecap="butt" stroke-linejoin="round" stroke="rgb(0%, 72.941176%, 21.960784%)" stroke-opacity="1" stroke-miterlimit="10" d="M 286.648438 60.1875 L 171.074219 60.1875 "/>
<path fill="none" stroke-width="1.066978" stroke-linecap="butt" stroke-linejoin="round" stroke="rgb(0%, 72.941176%, 21.960784%)" stroke-opacity="1" stroke-miterlimit="10" d="M 171.074219 61.25 L 171.074219 59.125 "/>
<path fill="none" stroke-width="1.066978" stroke-linecap="butt" stroke-linejoin="round" stroke="rgb(0%, 72.941176%, 21.960784%)" stroke-opacity="1" stroke-miterlimit="10" d="M 183.292969 188.683594 L 183.292969 186.558594 "/>
<path fill="none" stroke-width="1.066978" stroke-linecap="butt" stroke-linejoin="round" stroke="rgb(0%, 72.941176%, 21.960784%)" stroke-opacity="1" stroke-miterlimit="10" d="M 183.292969 187.621094 L 67.714844 187.621094 "/>
<path fill="none" stroke-width="1.066978" stroke-linecap="butt" stroke-linejoin="round" stroke="rgb(0%, 72.941176%, 21.960784%)" stroke-opacity="1" stroke-miterlimit="10" d="M 67.714844 188.683594 L 67.714844 186.558594 "/>
<path fill="none" stroke-width="1.066978" stroke-linecap="butt" stroke-linejoin="round" stroke="rgb(0%, 72.941176%, 21.960784%)" stroke-opacity="1" stroke-miterlimit="10" d="M 236.261719 124.964844 L 236.261719 122.84375 "/>
<path fill="none" stroke-width="1.066978" stroke-linecap="butt" stroke-linejoin="round" stroke="rgb(0%, 72.941176%, 21.960784%)" stroke-opacity="1" stroke-miterlimit="10" d="M 236.261719 123.902344 L 120.683594 123.902344 "/>
<path fill="none" stroke-width="1.066978" stroke-linecap="butt" stroke-linejoin="round" stroke="rgb(0%, 72.941176%, 21.960784%)" stroke-opacity="1" stroke-miterlimit="10" d="M 120.683594 124.964844 L 120.683594 122.84375 "/>
<path fill="none" stroke-width="1.066978" stroke-linecap="butt" stroke-linejoin="round" stroke="rgb(38.039216%, 61.176471%, 100%)" stroke-opacity="1" stroke-miterlimit="10" d="M 350.523438 50.632812 L 350.523438 48.507812 "/>
<path fill="none" stroke-width="1.066978" stroke-linecap="butt" stroke-linejoin="round" stroke="rgb(38.039216%, 61.176471%, 100%)" stroke-opacity="1" stroke-miterlimit="10" d="M 350.523438 49.570312 L 218.28125 49.570312 "/>
<path fill="none" stroke-width="1.066978" stroke-linecap="butt" stroke-linejoin="round" stroke="rgb(38.039216%, 61.176471%, 100%)" stroke-opacity="1" stroke-miterlimit="10" d="M 218.28125 50.632812 L 218.28125 48.507812 "/>
<path fill="none" stroke-width="1.066978" stroke-linecap="butt" stroke-linejoin="round" stroke="rgb(38.039216%, 61.176471%, 100%)" stroke-opacity="1" stroke-miterlimit="10" d="M 261.878906 178.0625 L 261.878906 175.9375 "/>
<path fill="none" stroke-width="1.066978" stroke-linecap="butt" stroke-linejoin="round" stroke="rgb(38.039216%, 61.176471%, 100%)" stroke-opacity="1" stroke-miterlimit="10" d="M 261.878906 177 L 129.636719 177 "/>
<path fill="none" stroke-width="1.066978" stroke-linecap="butt" stroke-linejoin="round" stroke="rgb(38.039216%, 61.176471%, 100%)" stroke-opacity="1" stroke-miterlimit="10" d="M 129.636719 178.0625 L 129.636719 175.9375 "/>
<path fill="none" stroke-width="1.066978" stroke-linecap="butt" stroke-linejoin="round" stroke="rgb(38.039216%, 61.176471%, 100%)" stroke-opacity="1" stroke-miterlimit="10" d="M 259.304688 114.347656 L 259.304688 112.222656 "/>
<path fill="none" stroke-width="1.066978" stroke-linecap="butt" stroke-linejoin="round" stroke="rgb(38.039216%, 61.176471%, 100%)" stroke-opacity="1" stroke-miterlimit="10" d="M 259.304688 113.285156 L 127.0625 113.285156 "/>
<path fill="none" stroke-width="1.066978" stroke-linecap="butt" stroke-linejoin="round" stroke="rgb(38.039216%, 61.176471%, 100%)" stroke-opacity="1" stroke-miterlimit="10" d="M 127.0625 114.347656 L 127.0625 112.222656 "/>
<g fill="rgb(30.196078%, 30.196078%, 30.196078%)" fill-opacity="1">
<use xlink:href="#glyph-0-1" x="19.21875" y="190.897461"/>
<use xlink:href="#glyph-0-2" x="24.21875" y="190.897461"/>
<use xlink:href="#glyph-0-3" x="29.21875" y="190.897461"/>
<use xlink:href="#glyph-0-4" x="34.21875" y="190.897461"/>
<use xlink:href="#glyph-0-1" x="37.21875" y="190.897461"/>
<use xlink:href="#glyph-0-3" x="42.21875" y="190.897461"/>
</g>
<g fill="rgb(30.196078%, 30.196078%, 30.196078%)" fill-opacity="1">
<use xlink:href="#glyph-0-1" x="19.21875" y="127.178711"/>
<use xlink:href="#glyph-0-2" x="24.21875" y="127.178711"/>
<use xlink:href="#glyph-0-3" x="29.21875" y="127.178711"/>
<use xlink:href="#glyph-0-4" x="34.21875" y="127.178711"/>
<use xlink:href="#glyph-0-5" x="37.21875" y="127.178711"/>
<use xlink:href="#glyph-0-6" x="42.21875" y="127.178711"/>
</g>
<g fill="rgb(30.196078%, 30.196078%, 30.196078%)" fill-opacity="1">
<use xlink:href="#glyph-0-5" x="24.21875" y="63.463867"/>
<use xlink:href="#glyph-0-6" x="29.21875" y="63.463867"/>
<use xlink:href="#glyph-0-4" x="34.21875" y="63.463867"/>
<use xlink:href="#glyph-0-1" x="37.21875" y="63.463867"/>
<use xlink:href="#glyph-0-3" x="42.21875" y="63.463867"/>
</g>
<path fill="none" stroke-width="1.066978" stroke-linecap="butt" stroke-linejoin="round" stroke="rgb(20%, 20%, 20%)" stroke-opacity="1" stroke-miterlimit="10" d="M 49.410156 187.621094 L 52.152344 187.621094 "/>
<path fill="none" stroke-width="1.066978" stroke-linecap="butt" stroke-linejoin="round" stroke="rgb(20%, 20%, 20%)" stroke-opacity="1" stroke-miterlimit="10" d="M 49.410156 123.902344 L 52.152344 123.902344 "/>
<path fill="none" stroke-width="1.066978" stroke-linecap="butt" stroke-linejoin="round" stroke="rgb(20%, 20%, 20%)" stroke-opacity="1" stroke-miterlimit="10" d="M 49.410156 60.1875 L 52.152344 60.1875 "/>
<path fill="none" stroke-width="1.066978" stroke-linecap="butt" stroke-linejoin="round" stroke="rgb(20%, 20%, 20%)" stroke-opacity="1" stroke-miterlimit="10" d="M 61.136719 228.589844 L 61.136719 225.847656 "/>
<path fill="none" stroke-width="1.066978" stroke-linecap="butt" stroke-linejoin="round" stroke="rgb(20%, 20%, 20%)" stroke-opacity="1" stroke-miterlimit="10" d="M 134.699219 228.589844 L 134.699219 225.847656 "/>
<path fill="none" stroke-width="1.066978" stroke-linecap="butt" stroke-linejoin="round" stroke="rgb(20%, 20%, 20%)" stroke-opacity="1" stroke-miterlimit="10" d="M 208.265625 228.589844 L 208.265625 225.847656 "/>
<path fill="none" stroke-width="1.066978" stroke-linecap="butt" stroke-linejoin="round" stroke="rgb(20%, 20%, 20%)" stroke-opacity="1" stroke-miterlimit="10" d="M 281.828125 228.589844 L 281.828125 225.847656 "/>
<path fill="none" stroke-width="1.066978" stroke-linecap="butt" stroke-linejoin="round" stroke="rgb(20%, 20%, 20%)" stroke-opacity="1" stroke-miterlimit="10" d="M 355.390625 228.589844 L 355.390625 225.847656 "/>
<g fill="rgb(30.196078%, 30.196078%, 30.196078%)" fill-opacity="1">
<use xlink:href="#glyph-0-4" x="52.136719" y="237.557617"/>
<use xlink:href="#glyph-0-1" x="55.136719" y="237.557617"/>
<use xlink:href="#glyph-0-3" x="60.136719" y="237.557617"/>
<use xlink:href="#glyph-0-6" x="65.136719" y="237.557617"/>
</g>
<g fill="rgb(30.196078%, 30.196078%, 30.196078%)" fill-opacity="1">
<use xlink:href="#glyph-0-4" x="125.699219" y="237.557617"/>
<use xlink:href="#glyph-0-1" x="128.699219" y="237.557617"/>
<use xlink:href="#glyph-0-6" x="133.699219" y="237.557617"/>
<use xlink:href="#glyph-0-6" x="138.699219" y="237.557617"/>
</g>
<g fill="rgb(30.196078%, 30.196078%, 30.196078%)" fill-opacity="1">
<use xlink:href="#glyph-0-4" x="201.765625" y="237.557617"/>
<use xlink:href="#glyph-0-3" x="204.765625" y="237.557617"/>
<use xlink:href="#glyph-0-6" x="209.765625" y="237.557617"/>
</g>
<g fill="rgb(30.196078%, 30.196078%, 30.196078%)" fill-opacity="1">
<use xlink:href="#glyph-0-6" x="279.328125" y="237.557617"/>
</g>
<g fill="rgb(30.196078%, 30.196078%, 30.196078%)" fill-opacity="1">
<use xlink:href="#glyph-0-3" x="350.390625" y="237.557617"/>
<use xlink:href="#glyph-0-6" x="355.390625" y="237.557617"/>
</g>
<g fill="rgb(0%, 0%, 0%)" fill-opacity="1">
<use xlink:href="#glyph-1-1" x="198.375" y="249.990234"/>
<use xlink:href="#glyph-1-2" x="206.375" y="249.990234"/>
<use xlink:href="#glyph-1-3" x="208.375" y="249.990234"/>
<use xlink:href="#glyph-1-3" x="211.375" y="249.990234"/>
<use xlink:href="#glyph-1-4" x="214.375" y="249.990234"/>
<use xlink:href="#glyph-1-5" x="220.375" y="249.990234"/>
<use xlink:href="#glyph-1-4" x="224.375" y="249.990234"/>
<use xlink:href="#glyph-1-6" x="230.375" y="249.990234"/>
<use xlink:href="#glyph-1-7" x="236.375" y="249.990234"/>
<use xlink:href="#glyph-1-4" x="242.375" y="249.990234"/>
</g>
<g fill="rgb(0%, 0%, 0%)" fill-opacity="1">
<use xlink:href="#glyph-2-1" x="12.951172" y="154.902344"/>
<use xlink:href="#glyph-2-2" x="12.951172" y="149.902344"/>
<use xlink:href="#glyph-2-3" x="12.951172" y="142.902344"/>
<use xlink:href="#glyph-2-4" x="12.951172" y="133.902344"/>
<use xlink:href="#glyph-2-2" x="12.951172" y="127.902344"/>
<use xlink:href="#glyph-2-5" x="12.951172" y="121.902344"/>
<use xlink:href="#glyph-2-6" x="12.951172" y="117.902344"/>
<use xlink:href="#glyph-2-7" x="12.951172" y="111.902344"/>
<use xlink:href="#glyph-2-8" x="12.951172" y="108.902344"/>
<use xlink:href="#glyph-2-5" x="12.951172" y="102.902344"/>
<use xlink:href="#glyph-2-2" x="12.951172" y="98.902344"/>
</g>
<path fill-rule="nonzero" fill="rgb(100%, 100%, 100%)" fill-opacity="1" d="M 405.5625 163.542969 L 454.519531 163.542969 L 454.519531 84.265625 L 405.5625 84.265625 Z M 405.5625 163.542969 "/>
<g fill="rgb(0%, 0%, 0%)" fill-opacity="1">
<use xlink:href="#glyph-1-8" x="411.042969" y="98.716797"/>
<use xlink:href="#glyph-1-9" x="420.042969" y="98.716797"/>
<use xlink:href="#glyph-1-10" x="426.042969" y="98.716797"/>
<use xlink:href="#glyph-1-4" x="429.042969" y="98.716797"/>
<use xlink:href="#glyph-1-5" x="435.042969" y="98.716797"/>
<use xlink:href="#glyph-1-2" x="439.042969" y="98.716797"/>
<use xlink:href="#glyph-1-9" x="441.042969" y="98.716797"/>
<use xlink:href="#glyph-1-11" x="447.042969" y="98.716797"/>
</g>
<path fill-rule="nonzero" fill="rgb(92.156863%, 92.156863%, 92.156863%)" fill-opacity="1" d="M 411.042969 123.503906 L 428.324219 123.503906 L 428.324219 106.222656 L 411.042969 106.222656 Z M 411.042969 123.503906 "/>
<path fill-rule="nonzero" fill="rgb(97.254902%, 46.27451%, 42.745098%)" fill-opacity="1" stroke-width="0.708661" stroke-linecap="round" stroke-linejoin="round" stroke="rgb(97.254902%, 46.27451%, 42.745098%)" stroke-opacity="1" stroke-miterlimit="10" d="M 421.636719 114.863281 C 421.636719 117.46875 417.726562 117.46875 417.726562 114.863281 C 417.726562 112.257812 421.636719 112.257812 421.636719 114.863281 "/>
<path fill="none" stroke-width="1.066978" stroke-linecap="butt" stroke-linejoin="round" stroke="rgb(97.254902%, 46.27451%, 42.745098%)" stroke-opacity="1" stroke-miterlimit="10" d="M 412.769531 114.863281 L 426.59375 114.863281 "/>
<path fill-rule="nonzero" fill="rgb(92.156863%, 92.156863%, 92.156863%)" fill-opacity="1" d="M 411.042969 140.785156 L 428.324219 140.785156 L 428.324219 123.503906 L 411.042969 123.503906 Z M 411.042969 140.785156 "/>
<path fill-rule="nonzero" fill="rgb(0%, 72.941176%, 21.960784%)" fill-opacity="1" stroke-width="0.708661" stroke-linecap="round" stroke-linejoin="round" stroke="rgb(0%, 72.941176%, 21.960784%)" stroke-opacity="1" stroke-miterlimit="10" d="M 421.636719 132.144531 C 421.636719 134.75 417.726562 134.75 417.726562 132.144531 C 417.726562 129.539062 421.636719 129.539062 421.636719 132.144531 "/>
<path fill="none" stroke-width="1.066978" stroke-linecap="butt" stroke-linejoin="round" stroke="rgb(0%, 72.941176%, 21.960784%)" stroke-opacity="1" stroke-miterlimit="10" d="M 412.769531 132.144531 L 426.59375 132.144531 "/>
<path fill-rule="nonzero" fill="rgb(92.156863%, 92.156863%, 92.156863%)" fill-opacity="1" d="M 411.042969 158.0625 L 428.324219 158.0625 L 428.324219 140.78125 L 411.042969 140.78125 Z M 411.042969 158.0625 "/>
<path fill-rule="nonzero" fill="rgb(38.039216%, 61.176471%, 100%)" fill-opacity="1" stroke-width="0.708661" stroke-linecap="round" stroke-linejoin="round" stroke="rgb(38.039216%, 61.176471%, 100%)" stroke-opacity="1" stroke-miterlimit="10" d="M 421.636719 149.425781 C 421.636719 152.03125 417.726562 152.03125 417.726562 149.425781 C 417.726562 146.816406 421.636719 146.816406 421.636719 149.425781 "/>
<path fill="none" stroke-width="1.066978" stroke-linecap="butt" stroke-linejoin="round" stroke="rgb(38.039216%, 61.176471%, 100%)" stroke-opacity="1" stroke-miterlimit="10" d="M 412.769531 149.425781 L 426.59375 149.425781 "/>
<g fill="rgb(0%, 0%, 0%)" fill-opacity="1">
<use xlink:href="#glyph-0-7" x="433.800781" y="118.139648"/>
</g>
<g fill="rgb(0%, 0%, 0%)" fill-opacity="1">
<use xlink:href="#glyph-0-8" x="433.800781" y="135.420898"/>
</g>
<g fill="rgb(0%, 0%, 0%)" fill-opacity="1">
<use xlink:href="#glyph-0-9" x="433.800781" y="152.702148"/>
</g>
<g fill="rgb(0%, 0%, 0%)" fill-opacity="1">
<use xlink:href="#glyph-1-12" x="52.152344" y="12.951172"/>
<use xlink:href="#glyph-1-13" x="58.152344" y="12.951172"/>
<use xlink:href="#glyph-1-14" x="64.152344" y="12.951172"/>
<use xlink:href="#glyph-1-15" x="74.152344" y="12.951172"/>
<use xlink:href="#glyph-1-3" x="77.152344" y="12.951172"/>
<use xlink:href="#glyph-1-9" x="80.152344" y="12.951172"/>
<use xlink:href="#glyph-1-16" x="86.152344" y="12.951172"/>
<use xlink:href="#glyph-1-2" x="95.152344" y="12.951172"/>
<use xlink:href="#glyph-1-11" x="97.152344" y="12.951172"/>
<use xlink:href="#glyph-1-17" x="99.152344" y="12.951172"/>
<use xlink:href="#glyph-1-18" x="105.152344" y="12.951172"/>
<use xlink:href="#glyph-1-19" x="109.152344" y="12.951172"/>
<use xlink:href="#glyph-1-2" x="117.152344" y="12.951172"/>
<use xlink:href="#glyph-1-20" x="119.152344" y="12.951172"/>
<use xlink:href="#glyph-1-4" x="125.152344" y="12.951172"/>
<use xlink:href="#glyph-1-15" x="131.152344" y="12.951172"/>
<use xlink:href="#glyph-1-7" x="134.152344" y="12.951172"/>
<use xlink:href="#glyph-1-21" x="140.152344" y="12.951172"/>
<use xlink:href="#glyph-1-6" x="146.152344" y="12.951172"/>
<use xlink:href="#glyph-1-22" x="152.152344" y="12.951172"/>
<use xlink:href="#glyph-1-23" x="158.152344" y="12.951172"/>
<use xlink:href="#glyph-1-4" x="164.152344" y="12.951172"/>
<use xlink:href="#glyph-1-6" x="170.152344" y="12.951172"/>
<use xlink:href="#glyph-1-7" x="176.152344" y="12.951172"/>
<use xlink:href="#glyph-1-4" x="182.152344" y="12.951172"/>
<use xlink:href="#glyph-1-15" x="188.152344" y="12.951172"/>
<use xlink:href="#glyph-1-11" x="191.152344" y="12.951172"/>
<use xlink:href="#glyph-1-4" x="193.152344" y="12.951172"/>
<use xlink:href="#glyph-1-24" x="199.152344" y="12.951172"/>
<use xlink:href="#glyph-1-4" x="205.152344" y="12.951172"/>
<use xlink:href="#glyph-1-11" x="211.152344" y="12.951172"/>
</g>
</svg>
